<svg width="353" height="46" viewBox="0 0 353 46" fill="none" xmlns="http://www.w3.org/2000/svg">
<path fill-rule="evenodd" clip-rule="evenodd" d="M276.424 32.2062C277.113 30.6142 277.458 28.8702 277.458 26.9742V21.0258C277.458 19.1443 277.113 17.4075 276.424 15.8155C275.735 14.209 274.778 12.834 273.553 11.6906C272.328 10.5328 270.873 9.62822 269.189 8.97693C267.52 8.32564 265.698 8 263.723 8H255.638C253.663 8 251.833 8.32564 250.148 8.97693C248.464 9.62822 247.009 10.5328 245.784 11.6906C244.559 12.834 243.595 14.209 242.89 15.8155C242.201 17.4075 241.857 19.1443 241.857 21.0258V26.9742C241.857 28.8702 242.201 30.6142 242.89 32.2062C243.595 33.7983 244.559 35.1732 245.784 36.3311C247.009 37.4889 248.464 38.3935 250.148 39.0448C251.833 39.6816 253.663 40 255.638 40H263.723C265.698 40 267.52 39.6816 269.189 39.0448C270.873 38.3935 272.328 37.4889 273.553 36.3311C274.778 35.1732 275.735 33.7983 276.424 32.2062ZM270.912 18.0081C271.294 18.9055 271.486 19.9114 271.486 21.0258V26.9742C271.486 28.0886 271.294 29.1018 270.912 30.0136C270.544 30.9109 270.016 31.6852 269.327 32.3365C268.638 32.9733 267.811 33.4726 266.846 33.8345C265.897 34.1818 264.84 34.3555 263.677 34.3555H255.638C254.474 34.3555 253.41 34.1818 252.445 33.8345C251.496 33.4726 250.677 32.9733 249.988 32.3365C249.299 31.6852 248.763 30.9109 248.38 30.0136C248.012 29.1018 247.829 28.0886 247.829 26.9742V21.0258C247.829 19.9114 248.012 18.9055 248.38 18.0081C248.763 17.0963 249.299 16.322 249.988 15.6852C250.677 15.0339 251.496 14.5346 252.445 14.1872C253.41 13.8254 254.474 13.6445 255.638 13.6445H263.723C264.871 13.6445 265.92 13.8254 266.869 14.1872C267.834 14.5346 268.653 15.0339 269.327 15.6852C270.016 16.322 270.544 17.0963 270.912 18.0081Z" fill="white"/>
<path fill-rule="evenodd" clip-rule="evenodd" d="M86.523 34.9634C86.7833 34.1673 86.9134 33.422 86.9134 32.7273V31.6418C86.9134 30.5418 86.7833 29.536 86.523 28.6242C86.2627 27.7123 85.9105 26.8946 85.4664 26.171C85.0224 25.4473 84.5018 24.8105 83.9046 24.2605C83.3227 23.7105 82.6949 23.2402 82.0212 22.8494C82.8021 21.8218 83.3687 20.7363 83.7208 19.5929C84.073 18.4351 84.2491 17.3569 84.2491 16.3582V15.2944C84.2491 14.0353 84.0041 12.9715 83.5141 12.1031C83.0395 11.2347 82.4346 10.5328 81.6996 9.99729C80.98 9.44731 80.1991 9.0493 79.3569 8.80326C78.5147 8.55721 77.7261 8.43419 76.9912 8.43419H57.0088C56.5801 8.43419 56.182 8.50656 55.8145 8.65129C55.447 8.79602 55.1254 8.99864 54.8498 9.25916C54.5895 9.51967 54.3828 9.82361 54.2297 10.171C54.0766 10.5183 54 10.8874 54 11.2782V36.7218C54 37.1271 54.0766 37.5034 54.2297 37.8507C54.3828 38.1981 54.5895 38.502 54.8498 38.7626C55.1254 39.0086 55.447 39.204 55.8145 39.3487C56.182 39.4934 56.5801 39.5658 57.0088 39.5658H79.6784C81.0106 39.5658 82.136 39.3415 83.0548 38.8928C83.9735 38.4297 84.7161 37.858 85.2827 37.1777C85.8645 36.4975 86.278 35.7594 86.523 34.9634ZM80.5742 29.6662C80.8192 30.2451 80.9417 30.9037 80.9417 31.6418V32.6839C80.9417 32.9878 80.8958 33.2266 80.8039 33.4003C80.712 33.5739 80.6048 33.697 80.4823 33.7693C80.3598 33.8417 80.222 33.8851 80.0689 33.8996C79.9158 33.9141 79.7856 33.9213 79.6784 33.9213H59.9717V14.0787H76.9912C77.818 14.0787 78.2314 14.4839 78.2314 15.2944V16.3582C78.2314 17.0963 78.109 17.7621 77.864 18.3555C77.6343 18.9344 77.2974 19.4337 76.8534 19.8535C76.4093 20.2732 75.8734 20.5988 75.2456 20.8304C74.6178 21.0475 73.9134 21.156 73.1325 21.156H70.1773V26.844H75.8198C76.6007 26.844 77.3051 26.9597 77.9329 27.1913C78.5607 27.4084 79.0966 27.7268 79.5406 28.1465C79.9847 28.5663 80.3292 29.0728 80.5742 29.6662Z" fill="white"/>
<path d="M118.472 39.5658H124.443V11.2782C124.443 10.8874 124.367 10.5183 124.214 10.171C124.061 9.82361 123.846 9.51967 123.571 9.25916C123.295 8.99864 122.973 8.79602 122.606 8.65129C122.239 8.50656 121.848 8.43419 121.435 8.43419H107.975C105.602 8.43419 103.412 8.81773 101.406 9.5848C99.4005 10.3519 97.6625 11.4229 96.1926 12.7978C94.7226 14.1728 93.5742 15.8155 92.7473 17.7259C91.9205 19.6364 91.5071 21.7277 91.5071 24V39.5658H97.4788V31.924H97.4892V26.2795H97.4788V24C97.4788 22.4224 97.7085 21.0837 98.1678 19.9837C98.6425 18.8693 99.2397 17.943 99.9594 17.2049C100.679 16.4668 101.468 15.8878 102.325 15.4681C103.183 15.0484 103.994 14.7372 104.76 14.5346C105.541 14.332 106.222 14.209 106.804 14.1655C107.401 14.1076 107.792 14.0787 107.975 14.0787H118.472V26.2795H118.461V31.924H118.472V39.5658Z" fill="white"/>
<path d="M160.894 39.5658H139.35C138.799 39.5658 138.201 39.5079 137.558 39.3921C136.931 39.2619 136.303 39.0665 135.675 38.806C135.062 38.5455 134.473 38.2126 133.906 37.8073C133.34 37.3876 132.835 36.8883 132.39 36.3094C131.962 35.716 131.617 35.0357 131.357 34.2687C131.097 33.4871 130.966 32.6115 130.966 31.6418V16.3582C130.966 15.8372 131.028 15.28 131.15 14.6866C131.288 14.0787 131.495 13.4853 131.77 12.9064C132.046 12.313 132.406 11.7485 132.85 11.213C133.294 10.6775 133.822 10.2071 134.435 9.8019C135.062 9.38218 135.782 9.0493 136.594 8.80326C137.405 8.55721 138.324 8.43419 139.35 8.43419H160.894V14.0787H139.35C138.569 14.0787 137.972 14.2741 137.558 14.6649C137.145 15.0556 136.938 15.6346 136.938 16.4016V31.6418C136.938 32.3654 137.145 32.9299 137.558 33.3351C137.987 33.7259 138.584 33.9213 139.35 33.9213H160.894V39.5658Z" fill="white"/>
<path d="M192.59 39.5658H201.065L184.138 24L201.065 8.43419H192.59L179.154 21.156H174.951V26.844H179.154L192.59 39.5658Z" fill="white"/>
<path d="M166.59 39.5658H172.562V8.43419H166.59V39.5658Z" fill="white"/>
<path fill-rule="evenodd" clip-rule="evenodd" d="M237.677 32.7273C237.677 33.422 237.547 34.1673 237.286 34.9634C237.041 35.7594 236.628 36.4975 236.046 37.1777C235.479 37.858 234.737 38.4297 233.818 38.8928C232.899 39.3415 231.774 39.5658 230.442 39.5658H207.772C207.343 39.5658 206.945 39.4934 206.578 39.3487C206.21 39.204 205.889 39.0086 205.613 38.7626C205.353 38.502 205.146 38.1981 204.993 37.8507C204.84 37.5034 204.763 37.1271 204.763 36.7218V11.2782C204.763 10.8874 204.84 10.5183 204.993 10.171C205.146 9.82361 205.353 9.51967 205.613 9.25916C205.889 8.99864 206.21 8.79602 206.578 8.65129C206.945 8.50656 207.343 8.43419 207.772 8.43419H227.754C228.489 8.43419 229.278 8.55721 230.12 8.80326C230.962 9.0493 231.743 9.44731 232.463 9.99729C233.198 10.5328 233.803 11.2347 234.277 12.1031C234.767 12.9715 235.012 14.0353 235.012 15.2944V16.3582C235.012 17.3569 234.836 18.4351 234.484 19.5929C234.132 20.7363 233.565 21.8218 232.784 22.8494C233.458 23.2402 234.086 23.7105 234.668 24.2605C235.265 24.8105 235.786 25.4473 236.23 26.171C236.674 26.8946 237.026 27.7123 237.286 28.6242C237.547 29.536 237.677 30.5418 237.677 31.6418V32.7273ZM231.705 31.6418C231.705 30.9037 231.582 30.2451 231.337 29.6662C231.092 29.0728 230.748 28.5663 230.304 28.1465C229.86 27.7268 229.324 27.4084 228.696 27.1913C228.068 26.9597 227.364 26.844 226.583 26.844H221.094V21.156H223.896C224.677 21.156 225.381 21.0475 226.009 20.8304C226.637 20.5988 227.173 20.2732 227.617 19.8535C228.061 19.4337 228.398 18.9344 228.627 18.3555C228.872 17.7621 228.995 17.0963 228.995 16.3582V15.2944C228.995 14.4839 228.581 14.0787 227.754 14.0787H210.735V33.9213H230.442C230.549 33.9213 230.679 33.9141 230.832 33.8996C230.985 33.8851 231.123 33.8417 231.246 33.7693C231.368 33.697 231.475 33.5739 231.567 33.4003C231.659 33.2266 231.705 32.9878 231.705 32.6839V31.6418Z" fill="white"/>
<path d="M316.274 37.156C316.274 37.5613 316.19 37.9376 316.021 38.2849C315.868 38.6323 315.654 38.9362 315.378 39.1967C315.118 39.4428 314.804 39.6382 314.436 39.7829C314.069 39.9276 313.678 40 313.265 40C312.898 40 312.522 39.9349 312.14 39.8046C311.772 39.6744 311.443 39.4645 311.152 39.175L289.332 17.6391V39.5658H283.36V10.844C283.36 10.265 283.529 9.74401 283.866 9.28087C284.218 8.80326 284.662 8.44867 285.198 8.2171C285.764 8 286.346 7.94934 286.943 8.06513C287.541 8.16644 288.054 8.42696 288.482 8.84668L310.302 30.3609V8.43419H316.274V37.156Z" fill="white"/>
<path d="M340.651 26.844H350.313V21.156H340.651V26.844Z" fill="white"/>
<path d="M331.456 39.5658H353V33.9213H331.502C330.706 33.9213 330.101 33.7259 329.687 33.3351C329.274 32.9444 329.067 32.3799 329.067 31.6418V14.0787H353V8.43419H326.104C325.675 8.43419 325.277 8.50656 324.91 8.65129C324.542 8.79602 324.221 8.99864 323.945 9.25916C323.685 9.51967 323.478 9.82361 323.325 10.171C323.172 10.5183 323.095 10.8874 323.095 11.2782V31.6418C323.095 33.1036 323.371 34.341 323.922 35.3541C324.489 36.3528 325.186 37.1705 326.012 37.8073C326.855 38.4297 327.766 38.8783 328.746 39.1533C329.726 39.4283 330.629 39.5658 331.456 39.5658Z" fill="white"/>
<path d="M21.8474 11.2328C22.2647 9.76878 22.4964 9.28662 22.8766 9.12882C23.368 8.92719 23.6647 8.96226 23.8223 9.23402C24.6938 10.7156 24.6938 11.0838 23.8408 12.3286C22.9137 13.6699 22.8117 14.0995 23.1547 15.0988L23.3772 15.7213L23.7388 15.6161C23.9428 15.5547 24.3971 15.3706 24.7402 15.1953C25.2965 14.9147 25.4634 14.8709 26.0011 14.8709C26.7428 14.8709 27.4846 15.0638 27.8276 15.3355C28.0687 15.5372 28.0687 15.5372 27.9667 16.1859C27.8184 17.0538 27.466 17.7726 26.9839 18.1934C26.5018 18.6142 26.0475 18.7545 25.2872 18.7107C24.972 18.7019 24.7124 18.7107 24.7124 18.737C24.7124 18.7633 24.972 19.0789 25.2965 19.4383C25.6117 19.7977 26.372 20.6919 26.9839 21.4371C28.3468 23.1027 30.5535 25.5924 31.9442 27.0564C35.931 31.2381 35.7457 31.7298 39 34.3159C38.7862 34.9235 36.0066 37.9618 34.5099 38.772C33.8685 39.3796 31.8729 40.2573 30.4474 41C26.2288 35.556 24.6938 32.8248 22.7653 28.3714C22.2646 27.1967 20.9481 24.558 20.7627 24.3476C20.7441 24.33 20.4567 24.4177 20.1229 24.558C19.6964 24.7245 19.4739 24.8736 19.3812 25.0489C19.1309 25.496 18.2315 26.3288 17.8328 26.4866C17.499 26.6093 17.3507 26.6181 16.9242 26.5392C16.6461 26.4866 16.3123 26.434 16.1825 26.4252C15.997 26.4077 15.8858 26.285 15.654 25.8291C15.4871 25.5135 15.2646 24.9524 15.1626 24.5667L14.9586 23.8742L15.4871 22.3751C15.7838 21.551 16.1454 20.6481 16.2937 20.3675C16.6646 19.6925 16.609 19.5698 15.9507 19.6312C15.654 19.6575 15.2924 19.7627 15.0884 19.8854C14.7917 20.0607 14.6249 20.087 13.8182 20.087C12.9745 20.087 12.854 20.0695 12.4553 19.8503C11.9917 19.5873 11.2871 18.886 11.4447 18.8334C11.5652 18.7983 11.3056 18.2899 11.1016 18.1496C10.8606 17.983 11.0553 17.7814 11.6116 17.6411C13.2063 17.2204 15.0421 16.4138 15.7653 15.8177C16.2659 15.3969 16.5255 14.9673 16.5997 14.38C16.6739 13.854 16.5719 13.442 16.0712 12.3374C15.7374 11.5922 15.7004 11.4607 15.7374 10.9172C15.7653 10.4 15.8116 10.286 16.0434 10.0493C16.5533 9.54085 17.5083 9.78631 17.8885 10.5227C18.0275 10.7945 18.0461 10.8997 17.9534 11.0224C17.8699 11.1627 17.8977 11.2854 18.111 11.6974C18.2593 11.9692 18.4911 12.4689 18.6302 12.8108L18.8805 13.4244L19.5481 13.4507C20.8646 13.4946 21.3468 13.0387 21.8474 11.2328Z" fill="white"/>
<path fill-rule="evenodd" clip-rule="evenodd" d="M23 42C33.4934 42 42 33.4934 42 23C42 12.5066 33.4934 4 23 4C12.5066 4 4 12.5066 4 23C4 33.4934 12.5066 42 23 42ZM46 23C46 35.7025 35.7025 46 23 46C10.2975 46 0 35.7025 0 23C0 10.2975 10.2975 0 23 0C35.7025 0 46 10.2975 46 23Z" fill="white"/>
</svg>
