<svg xmlns="http://www.w3.org/2000/svg" width="107" height="29.8" style="clip-rule:evenodd;fill-rule:evenodd;image-rendering:optimizeQuality;shape-rendering:geometricPrecision;text-rendering:geometricPrecision">
  <path fill="#736c69" d="M138 22a503 503 0 0 1-4 6l-1 6a363 363 0 0 0 3 18 420 420 0 0 0 1 29l-2-2a195 195 0 0 0-4-45c-1-6 2-10 7-12z" style="opacity:.459" transform="translate(-2 -2) scale(.1234)"/>
  <path fill="#605b56" d="M67 50a2 2 0 0 1 2 0c-9 5-11 12-6 20a2 2 0 0 1-2 1c-5-9-3-16 6-21z" style="opacity:.494" transform="translate(-2 -2) scale(.1234)"/>
  <path fill="#67625e" d="M439 59c-10 7-15 17-17 30l-3 3c2-13 7-23 16-32a10 10 0 0 1 4-1z" style="opacity:.6" transform="translate(-2 -2) scale(.1234)"/>
  <path fill="#646058" d="M310 67a310 310 0 0 0-10 10c-3 5-5 11-5 18-1-11 2-20 11-27a10 10 0 0 1 4-1z" style="opacity:.604" transform="translate(-2 -2) scale(.1234)"/>
  <path fill="#cfaf51" d="M680 88c7-2 14-2 22 0l-1 5v-4a145 145 0 0 0-21-1z" style="opacity:1" transform="translate(-2 -2) scale(.1234)"/>
  <path fill="#221303" d="m749 91-4-2c-8-4-15-4-22-1-3 1-4 2-5 4-6 3-10 7-12 13-2 2-3 5-4 9-1 8 0 15 3 23l6 4v1c-4-1-6-3-8-5-4-7-6-15-5-22h2a52 52 0 0 1 2-10l-1-1c4-1 6-4 8-8l-1-1h-4a5 5 0 0 0 0 3c-2-1-3 0-3 1l-5 5a79 79 0 0 0-10-1c-1 3-1 3-3 0l-2 2c-1-2 0-4 1-5a76 76 0 0 1 17 1 54 54 0 0 1 2-8l1-5 7 4 8-5 2 2a23 23 0 0 0 7-6 8 8 0 0 0 4 1l8-4a57 57 0 0 0 6 3l1-1c1 1 3 3 6 3a5 5 0 0 1-3 1c-1 1 0 3 2 4l-1 1z" style="opacity:1" transform="translate(-2 -2) scale(.1234)"/>
  <path fill="#f0c233" d="M403 91a240 240 0 0 0-11-2l-9 3c-3 2-3 3 0 5l-3 1 10 2c-3-1-5 0-7 1-3 0-5 2-6 4l-4 10c-1-5 0-9 2-13l4-1c-1-2-2-2-3 0v-2l2-5-4-1-12 11c3-8 9-14 18-17a64 64 0 0 1 16 0l7 4z" style="opacity:1" transform="translate(-2 -2) scale(.1234)"/>
  <path fill="#332c27" d="M375 82a57 57 0 0 0-10 8c-6 3-10 9-11 16a8 8 0 0 1 0-4c4-10 11-17 21-20z" style="opacity:.773" transform="translate(-2 -2) scale(.1234)"/>
  <path fill="#1c1106" d="M672 82h6c1 1 0 2-1 2l3 2a103 103 0 0 1 10-2c-3-1-3-3 1-3 2 0 5 1 7 3l1-1c0 2 1 3 3 5-8-2-15-2-22 0-10-1-15 3-14 13-2 5-4 10-4 16v1c-2 5-4 10-4 16-2 3-3 6-2 10h16v-3a162 162 0 0 0 5-24l4-11-6 26a116 116 0 0 1-2 13l-1 1 1 3-2 2a63 63 0 0 0-15-1c-2-6-4-7-6-1a9 9 0 0 0-1-3v-4a23 23 0 0 1-2 5c-1-2-2-2-3-2h-4c-2 0-2 0 0 2a27 27 0 0 1-4 2 7 7 0 0 0-3-3h-2a8 8 0 0 1 0-4c5 2 10 2 16 0-2-8-3-15-2-22l7-30c-10-3-20-4-30-3-10 3-18 9-22 19-4 6-5 14-3 22 0 6 3 11 9 15l1 2 5 2-3 3a43 43 0 0 1-5-2c0-2 0-2-2 0-1-3-2-3-1 1l-4-3-6-13-2-1a19 19 0 0 1-1-6 33 33 0 0 1-3-6l-6 13 1 1h-4a8 8 0 0 0 0 4 21 21 0 0 1-5-1 60 60 0 0 1 5-9l9-16a368 368 0 0 0 11-23c-6-2-12-2-17 0a476 476 0 0 1-9 23 65 65 0 0 0-6 12 490 490 0 0 1-3-36c-5-1-10 0-14 1a529 529 0 0 1-12 28c-2 1-4 4-5 7a103 103 0 0 0-1-10 361 361 0 0 1-1-26h-14a61 61 0 0 1-6-4h-1l3 3a295 295 0 0 0-19 0c0-7 2-12 6-17h-3v-4c-4 0-4 1-1 3a170 170 0 0 1-14 3c-1-2-2-2-3 0a8 8 0 0 1 0-4h-3l-2-6c-7-2-13-2-19 0-7 0-12 2-15 8-4 3-6 7-8 13a392 392 0 0 0-7 33 247 247 0 0 1-7 24c-2-3-2-6 1-8l-2-3c2-2 2-4 0-5l-7 5c3 2 4 4 3 9a23 23 0 0 1 2 5c-3 2-4 5-5 8a44 44 0 0 0-2-1c1-2 1-3-1-3v-2a37 37 0 0 1-7 4 13 13 0 0 1-5-1c1-1 1-1-1-1h-8a65 65 0 0 0-10 4 55 55 0 0 1-4-2 4 4 0 0 1 2-2l-3-4c20 5 33-2 40-21 4-9 3-18-1-26-1-3-3-4-4-5l-7-4a64 64 0 0 0-16 0c-9 3-15 9-18 17l-1 1h-1v-5c3-1 4-3 2-6a134 134 0 0 1 9-4h-6a57 57 0 0 1 10-8c12-5 23-4 35 3a71 71 0 0 1 7 12 28 28 0 0 1 2-5l3-3c2-13 7-23 17-30 3-3 7-5 12-5 8-1 17 0 26 3 2 2 3 4 3 8a90 90 0 0 0 12-1c6-1 9 2 9 8l-1 8h31l4 3a43 43 0 0 1 2 9 34 34 0 0 1 7-11c7-2 15-2 23 0l3 7c2-5 5-7 10-8a61 61 0 0 1 21 1 51 51 0 0 1 4 6c17-10 34-11 53-3 1 4 2 4 4 1a59 59 0 0 1 10-3z" style="opacity:1" transform="translate(-2 -2) scale(.1234)"/>
  <path fill="#ebbe37" d="M631 142a2 2 0 0 0-1-2c-7 5-15 6-23 3a73 73 0 0 0 17-1c2-2 2-4 0-5a20 20 0 0 0-5-2l3-2a32 32 0 0 1 6-2c-2 1-2 2 0 3 1-1 2-2 3-1 2 5 5 8 11 8l2-2a53 53 0 0 1-1-17l5-22a55 55 0 0 1-2-9 204 204 0 0 0-18-1c-3 1-5 2-6 4-1-2-2-3-4-3a1200 1200 0 0 1-9 5 119 119 0 0 0-9 10c4-10 12-16 22-19 10-1 20 0 30 3l-7 30c-1 7 0 14 2 22-6 2-11 2-16 0z" style="opacity:1" transform="translate(-2 -2) scale(.1234)"/>
  <path fill="#211204" d="M452 62c6-2 12-2 19 0l2 6h3a8 8 0 0 0 0 4c1-2 2-2 3 0l14-3c-3-2-3-3 1-3v4h3c-4 5-6 10-6 17h19l-3-3h1a61 61 0 0 0 6 4c-2 6-2 13 0 21v5l-3-10 1-13c-2-3-3-3-4 0 1 2 0 3-2 3l-2 5 2-11h-16l-1-1a44 44 0 0 0 2-10l1-5a66 66 0 0 0-16 2 52 52 0 0 0-1 7 178 178 0 0 0-5 18 253 253 0 0 0-3-11c-2 2-2 4 1 7h-4l-3 6a271 271 0 0 0-18 2 27 27 0 0 0-3 10l-1-1v-4l2-7h19a21 21 0 0 1 1-5v-2l2-5a82 82 0 0 0-18-1c0-9 4-13 12-13h10a18 18 0 0 0 2-5l3-5a22 22 0 0 0-6-3 98 98 0 0 0-14 0z" style="opacity:1" transform="translate(-2 -2) scale(.1234)"/>
  <path fill="#e3bd4b" d="M490 88h16l-2 11v2h-18c5-1 11-2 17-1l-1-11-12-1z" style="opacity:1" transform="translate(-2 -2) scale(.1234)"/>
  <path fill="#dbb748" d="M491 77v-4a52 52 0 0 1-14 2l-2 6a52 52 0 0 1 1-7 66 66 0 0 1 16-2l-1 5z" style="opacity:1" transform="translate(-2 -2) scale(.1234)"/>
  <path fill="#e4bc3f" d="M469 70a18 18 0 0 1-2 5 25 25 0 0 1-10 0c-8 0-12 4-12 13a82 82 0 0 1 18 1l-2 5v-5h-17a74 74 0 0 1 1-12l7-4h15c-1-2 0-3 2-3z" style="opacity:1" transform="translate(-2 -2) scale(.1234)"/>
  <path fill="#eec235" d="M680 88c7-1 14 0 21 1v4a54 54 0 0 0-2 8 76 76 0 0 0-17-1c-1 1-2 3-1 5v1l-4 11a49 49 0 0 1 3-18 65 65 0 0 1 16-1 54 54 0 0 1-4-9c-7-1-13 0-19 4-1-1-3-2-4-1a29 29 0 0 1-1 6l-2 3c-1-10 4-14 14-13z" style="opacity:1" transform="translate(-2 -2) scale(.1234)"/>
  <path fill="#f6c625" d="M491 77a44 44 0 0 1-2 10l1 1 12 1 1 11c-6-1-12 0-17 1l-4 15v2c-5 12 0 16 13 12h3v13c-8 1-16 2-23 1a22 22 0 0 1-7-4l-1-2a29 29 0 0 0-1-7 226 226 0 0 0 4-29l2-3a85 85 0 0 0 3-18l2-6a52 52 0 0 0 14-2v4z" style="opacity:1" transform="translate(-2 -2) scale(.1234)"/>
  <path fill="#db4" d="M718 92a9084 9084 0 0 0-12 13c2-6 6-10 12-13z" style="opacity:1" transform="translate(-2 -2) scale(.1234)"/>
  <path fill="#d3ac3b" d="M475 81a85 85 0 0 1-3 18l-2 3v-3a178 178 0 0 1 5-18z" style="opacity:1" transform="translate(-2 -2) scale(.1234)"/>
  <path fill="#f8c622" d="m628 131 2-11v-2l2-2a87 87 0 0 0 4-18 41 41 0 0 1-10-2v3c-4 0-7 1-9 3-2 1-2 3-2 6-2 0-3 2-4 4a64 64 0 0 0 0 16l3 2 1 2 7 1-3 2 5 2c2 1 2 3 0 5a73 73 0 0 1-17 1h-1c-6-4-9-9-9-15a126 126 0 0 1 3-22 119 119 0 0 1 9-10l9-5c2 0 3 1 4 3a15 15 0 0 1 6-4l18 1a55 55 0 0 0 2 9l-5 22a53 53 0 0 0 1 17l-2 2c-6 0-9-3-11-8-1-1-2 0-3 1-2-1-2-2 0-3z" style="opacity:1" transform="translate(-2 -2) scale(.1234)"/>
  <path fill="#e4ba34" d="M630 118a105 105 0 0 1 4-17c-4-2-7-2-10-1a99 99 0 0 0-9 8c0-3 0-5 2-6 2-2 5-3 9-3v-3a41 41 0 0 0 10 2 87 87 0 0 1-4 18l-2 2z" style="opacity:1" transform="translate(-2 -2) scale(.1234)"/>
  <path fill="#eec138" d="M561 88v20c-1-7-2-13-1-19-6-2-10 0-12 6a4 4 0 0 0 2 1l-7 7-8 14a529 529 0 0 0 12-28c4-1 9-2 14-1z" style="opacity:1" transform="translate(-2 -2) scale(.1234)"/>
  <path fill="#e1ba39" d="M437 70c0 4-2 8-5 12a122 122 0 0 0-6 26 70 70 0 0 1-4 8 392 392 0 0 1 7-33c2-6 4-10 8-13z" style="opacity:1" transform="translate(-2 -2) scale(.1234)"/>
  <path fill="#e3bb3f" d="M514 88h14a361 361 0 0 0-1 2c-4-1-8 0-11 2l-1-1a1699 1699 0 0 0 1 31 50 50 0 0 0-1-10l-1-3c-2-8-2-15 0-21z" style="opacity:1" transform="translate(-2 -2) scale(.1234)"/>
  <path fill="#f7c624" d="M452 62h14a22 22 0 0 1 6 3l-3 5c-2 0-3 1-2 3h-15l-7 4a74 74 0 0 0-1 12h17v7c-2 0-3 2-2 4a63 63 0 0 0-20 0v8l-2 1a37 37 0 0 1-3 14 115 115 0 0 0-2 15c-2 9-7 17-13 24a61 61 0 0 1-11-1v-4c0-2 1-4 3-5l5-7a109 109 0 0 1 5-16l1-13a70 70 0 0 0 4-8 122 122 0 0 1 6-26c3-4 5-8 5-12 3-6 8-8 15-8z" style="opacity:1" transform="translate(-2 -2) scale(.1234)"/>
  <path fill="#e3bb3c" d="M585 112a67 67 0 0 1 6-17c-1-4-3-6-6-6-3-1-5 0-6 3l-1 8c0 2-1 2-3 2a50 50 0 0 0-3 9l-2 1a476 476 0 0 0 9-23c5-2 11-2 17 0a368 368 0 0 1-11 23z" style="opacity:1" transform="translate(-2 -2) scale(.1234)"/>
  <path fill="#c8a234" d="M600 106a126 126 0 0 0-3 22c-2-8-1-16 3-22z" style="opacity:1" transform="translate(-2 -2) scale(.1234)"/>
  <path fill="#daaf3c" d="M666 101a50 50 0 0 1-2 13l-2 3c0-6 2-11 4-16z" style="opacity:1" transform="translate(-2 -2) scale(.1234)"/>
  <path fill="#c9a335" d="M561 88a490 490 0 0 0 3 36l-2 2a68 68 0 0 1-1-18V88z" style="opacity:1" transform="translate(-2 -2) scale(.1234)"/>
  <path fill="#e1b63e" d="m585 112-9 16a57 57 0 0 1 6-13c-2-2-2-2 0-1 0-2 1-2 3-2z" style="opacity:1" transform="translate(-2 -2) scale(.1234)"/>
  <path fill="#b19236" d="m514 109 1 3 1 10-2-8v-5z" style="opacity:1" transform="translate(-2 -2) scale(.1234)"/>
  <path fill="#5a554f" d="M32 103h1c-9 6-11 13-5 22l-1 1c-5-5-5-10-3-15 1-4 4-7 8-8z" style="opacity:.592" transform="translate(-2 -2) scale(.1234)"/>
  <path fill="#f8c622" d="M561 108a68 68 0 0 0 1 18l2-2a65 65 0 0 1 6-12l2-1a50 50 0 0 1 3-9c2 0 3 0 3-2l1-8c1-3 3-4 6-3 3 0 5 2 6 6a67 67 0 0 0-6 17c-2 0-3 0-3 2-2-1-2-1 0 1a57 57 0 0 0-6 13 60 60 0 0 0-5 9l-2 1c-3-2-4-1-3 3-5 0-9-2-12-4 0-3 0-5 2-7l-2-4c1-4 2-7 1-10-2 2-3 2-2-1 0-2 1-4 3-5-2-2-4-2-6-2v3h-4l-3 11c-3-1-4 0-3 3-2 1-3 3-2 5h-4a77 77 0 0 0-1 10 6 6 0 0 1-1 3l-14-2-1-13a1699 1699 0 0 1-2-37l1 1c3-2 7-3 11-2v22l2 2a103 103 0 0 1 1 10c1-3 3-6 5-7l8-14 7-7a4 4 0 0 1-2-1c2-6 6-8 12-6-1 6 0 12 1 19z" style="opacity:1" transform="translate(-2 -2) scale(.1234)"/>
  <path fill="#1d1005" d="M630 118v2l-2 8-1 1c-9 3-14 0-14-9 0-3 1-6 3-8a11 11 0 0 0-1-2v-2a99 99 0 0 1 9-8c3-1 6-1 10 1a105 105 0 0 0-4 17z" style="opacity:1" transform="translate(-2 -2) scale(.1234)"/>
  <path fill="#e5be46" d="M615 108v2c-4 6-4 13-1 20l-3-2a64 64 0 0 1 0-16c1-2 2-4 4-4z" style="opacity:1" transform="translate(-2 -2) scale(.1234)"/>
  <path fill="#f9c720" d="M677 117c-4 7-6 14-7 23a5 5 0 0 1-2 1l-8-1-1-4 3-18v-1l2-3a50 50 0 0 0 2-13l2-3 1-6c1-1 3 0 4 1 6-4 12-5 19-4a54 54 0 0 0 4 9 65 65 0 0 0-16 1 49 49 0 0 0-3 18z" style="opacity:1" transform="translate(-2 -2) scale(.1234)"/>
  <path fill="#301a03" d="m615 110 1 2c-2 2-3 5-3 8 0 9 5 12 14 9-5 3-9 3-13 1-3-7-3-14 1-20z" style="opacity:1" transform="translate(-2 -2) scale(.1234)"/>
  <path fill="#1e1006" d="M550 117c0 5 0 11 2 17 0 3 0 6 2 10v6h16v4l2 4h-7v-3c-6-1-11 0-15 1a399 399 0 0 1-5 19 63 63 0 0 0-19 2c-1-3 0-4 2-2 1-2 3-3 6-2-3-1-3-2 0-2 1 0 2 1 2 3 1-3 1-3 2 0 0-3 1-4 4-2 3-4 3-9 2-13-1-5 1-8 6-10-1-1-2-2-3-1a19 19 0 0 1-3-5v-2l-1-2c-3 0-4-1-4-3-4 3-4 5 1 6-3 1-4 3-4 6h-3l-1 3-13-4-3-7a162 162 0 0 1-2-17h-1a24 24 0 0 0 1-9l2 8c-1 2 0 4 1 6l1 13v3l14-1a6 6 0 0 0 1-3 272 272 0 0 0 16-27 8 8 0 0 1 1 4z" style="opacity:1" transform="translate(-2 -2) scale(.1234)"/>
  <path fill="#201203" d="M750 93c1-1 2 0 3 2l2-1a20 20 0 0 1 3 5h-3c-1 9-5 17-11 23-2-2-3-2-4 0l2 4c-6-1-7 0-3 4l-3 2a85 85 0 0 1-13-1c-4-1-5-4-5-7l18-3c10-2 16-9 17-19l-3-9z" style="opacity:1" transform="translate(-2 -2) scale(.1234)"/>
  <path fill="#e0bb45" d="m630 120-2 11a32 32 0 0 0-6 2 25 25 0 0 1-7-1l-1-2c4 2 8 2 13-1l1-1 2-8z" style="opacity:1" transform="translate(-2 -2) scale(.1234)"/>
  <path fill="#f1c22f" d="m569 138-3 5a37 37 0 0 1-12 1c-2-4-2-7-2-10l-2-17a8 8 0 0 0-1-4 272 272 0 0 1-16 27l1-10h4c-1-2 0-4 2-5-1-3 0-4 3-3l3-11h4v-3c2 0 4 0 6 2-2 1-3 3-3 5-1 3 0 3 2 1 1 3 0 6-1 10l2 4c-2 2-2 4-2 7 3 2 7 4 12 4-1-4 0-5 3-3z" style="opacity:1" transform="translate(-2 -2) scale(.1234)"/>
  <path fill="#a88736" d="m550 117 2 17c-2-6-2-12-2-17z" style="opacity:1" transform="translate(-2 -2) scale(.1234)"/>
  <path fill="#f8c622" d="m745 89 4 2 1 2 3 9c-1 10-7 17-17 19a168 168 0 0 0-17 2c-1-1-2-2-3-1-1 3 0 7 1 10 6 0 13 1 19 3l5-1v8a99 99 0 0 1-23 2l-7-2v-1c-7-7-9-15-8-23a89 89 0 0 0 3-13c3-5 7-9 12-13l9-4a63 63 0 0 1 18 1z" style="opacity:1" transform="translate(-2 -2) scale(.1234)"/>
  <path fill="#edc133" d="M718 113a88 88 0 0 0 15-3c4-2 6-5 4-9-4-3-8-3-11-1a73 73 0 0 0-7 8v-5h3c-1-4 1-6 6-6l2-2 8 2a5 5 0 0 1 0-3 90 90 0 0 1 3 10 41 41 0 0 0-4 12 182 182 0 0 0-19-3z" style="opacity:1" transform="translate(-2 -2) scale(.1234)"/>
  <path fill="#77716d" d="m293 121 1 1c-6 6-9 13-9 21-3-3-3-6-1-8a146 146 0 0 1 9-14z" style="opacity:.4" transform="translate(-2 -2) scale(.1234)"/>
  <path fill="#4b4641" d="m589 132 2 1 6 13c-5-4-7-9-8-14z" style="opacity:.406" transform="translate(-2 -2) scale(.1234)"/>
  <path fill="#ebbe38" d="M677 117a162 162 0 0 1-5 24l-14 2v-9c0-6 2-11 4-16l-3 18 1 4 8 1a5 5 0 0 0 2-1c1-9 3-16 7-23z" style="opacity:1" transform="translate(-2 -2) scale(.1234)"/>
  <path fill="#7f7874" d="m75 134 2 1a859 859 0 0 1-7 21 2 2 0 0 1 0-2 219 219 0 0 1 5-20z" style="opacity:.518" transform="translate(-2 -2) scale(.1234)"/>
  <path fill="#c5a13a" d="M658 134v9l14-2v3h-16c-1-4 0-7 2-10z" style="opacity:1" transform="translate(-2 -2) scale(.1234)"/>
  <path fill="#2c1802" d="M631 142c-3 1-5 3-6 6-1-2-2-3-4-2a36 36 0 0 1-9 1l-5-2-1-2h1c8 3 16 2 23-3l1 2z" style="opacity:1" transform="translate(-2 -2) scale(.1234)"/>
  <path d="M750 149c1 0 1 0 0 0z" style="opacity:.00400002" transform="translate(-2 -2) scale(.1234)"/>
  <path fill="#1a0f07" d="m750 149-3 1c17 1 29 11 34 28 13-11 28-13 44-7v4l-5-3c-2 2-4 2-6-1a4 4 0 0 1-1 1c-5-3-8-2-11 1a50 50 0 0 1-5-1c-5 2-8 5-11 10-1-2-2-3-4-1l1 6-3 5c-2 1-3 2-4 5l-1-2-1-17c0-2-1-3-2-3 0-5-2-9-5-12a56 56 0 0 0-15-4c-3-2-6-2-9-2a737 737 0 0 1-22 2 2254 2254 0 0 0-8 45 278 278 0 0 1-5 25c0 1 0 2 2 3a44 44 0 0 0 3 2c12 1 24 1 37-2l6-6 2-1a54 54 0 0 1 7-4l2 4a30 30 0 0 0 3-10c4 1 4 4 2 7a29 29 0 0 1 4 6 20 20 0 0 1-2 4c-2-3-4-4-6-5a56 56 0 0 1-41 15 83 83 0 0 1-22-3c-3-1-4-2-4-4a1717 1717 0 0 0 15-72c0-3 1-5 3-6h-1a6 6 0 0 1 1-3c-9-2-16-7-20-13l1-2a87 87 0 0 1-5-10 1296 1296 0 0 0 0-18l-1-2a18 18 0 0 0-6 0 737 737 0 0 1-9 37l-4 5a121 121 0 0 1-22 0 9 9 0 0 1-3-1 69 69 0 0 1-15 3l-6-2c-10 4-20 3-28-2-1-4 0-4 1-1 2-2 2-2 2 0a43 43 0 0 0 5 2l3-3a36 36 0 0 0 9-1c2-1 3 0 4 2 1-3 3-5 6-6a8 8 0 0 0 0 4h2a7 7 0 0 1 3 3 27 27 0 0 0 4-2c-2-2-2-2 0-2h4c1 0 2 0 3 2a23 23 0 0 0 2-5v4a9 9 0 0 1 1 3c2-6 4-5 6 1a63 63 0 0 1 15 1l2-2-1-3 1-1a116 116 0 0 0 2-13l6-26v-1l2-2c2 3 2 3 3 0l10 1 5-5c0-1 1-2 3-1a5 5 0 0 1 0-3h4l1 1c-2 4-4 7-8 8l1 1a52 52 0 0 0-2 10h-2c-1 7 1 15 5 22 2 2 4 4 8 5l7 2h18a21 21 0 0 0 6-2v-10c-1-2-2-3-3-2-4-4-3-5 3-4l-2-4c1-2 2-2 4 0 6-6 10-14 11-23h3a20 20 0 0 0-3-5 4 4 0 0 0-2 1c-1-2-2-3-3-2l-1-2 1-1c-2-1-3-3-2-4a5 5 0 0 0 3-1c-3 0-5-2-6-3l-1 1a57 57 0 0 1-6-3l-8 4a8 8 0 0 1-4-1 23 23 0 0 1-7 6l-2-2-8 5-7-4c-2-2-3-3-3-5l-1 1c-2-2-5-3-7-3-4 0-4 2-1 3l-10 2-3-2c1 0 2-1 1-2h-6c11-4 23-4 35-1a26 26 0 0 1 4 5c9-6 20-8 32-7 11 3 17 11 18 23a37 37 0 0 1-3 13 148 148 0 0 1-9 11 91 91 0 0 1 3 16 72 72 0 0 0-2 7z" style="opacity:1" transform="translate(-2 -2) scale(.1234)"/>
  <path fill="#d5b248" d="M739 130c1-1 2 0 3 2v10a21 21 0 0 1-6 2h-18a99 99 0 0 0 23-2v-8c-2-2-3-3-5-2l3-2z" style="opacity:1" transform="translate(-2 -2) scale(.1234)"/>
  <path fill="#45413a" d="M695 111v18a87 87 0 0 0 5 10l-1 2c-5-10-7-20-4-30z" style="opacity:.157" transform="translate(-2 -2) scale(.1234)"/>
  <path fill="#d9b53f" d="M706 105a89 89 0 0 1-3 13c-1 8 1 16 8 23l-6-4c-3-8-4-15-3-23 1-4 2-7 4-9z" style="opacity:1" transform="translate(-2 -2) scale(.1234)"/>
  <path fill="#eabf35" d="m736 121-18 3c0 3 1 6 5 7l13 1c2-1 3 0 5 2l-5 1a80 80 0 0 0-19-3c-1-3-2-7-1-10 1-1 2 0 3 1a168 168 0 0 1 17-2z" style="opacity:1" transform="translate(-2 -2) scale(.1234)"/>
  <path fill="#201203" d="M718 113a21 21 0 0 1 1-5 73 73 0 0 1 7-8c3-2 7-2 11 1 2 4 0 7-4 9a88 88 0 0 1-15 3z" style="opacity:1" transform="translate(-2 -2) scale(.1234)"/>
  <path fill="#c4a13c" d="M745 89a63 63 0 0 0-18-1l-9 4c1-2 2-3 5-4 7-3 14-3 22 1z" style="opacity:1" transform="translate(-2 -2) scale(.1234)"/>
  <path fill="#662d0e" d="M550 156c4-1 9-2 15-1v3h-1c-5-2-9-3-14-2z" style="opacity:1" transform="translate(-2 -2) scale(.1234)"/>
  <path fill="#2c0a01" d="M384 174h-1v-1c0-5 1-10 3-14h-44a381 381 0 0 1-10 44 497 497 0 0 0 1-14 224 224 0 0 0 7-31 531 531 0 0 1 46-2c2 6 2 12-2 18z" style="opacity:1" transform="translate(-2 -2) scale(.1234)"/>
  <path fill="#320b01" d="M752 159a145 145 0 0 0-29 2 171 171 0 0 0-3 18c-3 7-5 16-6 25h-1a2254 2254 0 0 1 8-45 737 737 0 0 0 22-2c3 0 6 0 9 2z" style="opacity:1" transform="translate(-2 -2) scale(.1234)"/>
  <path fill="#1b1007" d="M354 102a8 8 0 0 0 0 4c1-7 5-13 11-16h6a134 134 0 0 0-9 4c2 3 1 5-2 6v5c-3 7-4 15-3 23 0 3 2 7 4 10l6 4 1 1 3 4a4 4 0 0 0-2 2 55 55 0 0 0 4 2 65 65 0 0 1 10-4h8c2 0 2 0 1 1a13 13 0 0 0 5 1l-7 3c1 1 3 2 3 4a36 36 0 0 1 0 13l7-1c-6-3-7-6-2-10 1 1 2 0 3-1a46 46 0 0 1 4-7l2 1c1-3 2-6 5-8a23 23 0 0 0-2-5c1-5 0-7-3-9l7-5c2 1 2 3 0 5l2 3c-3 2-3 5-1 8a127 127 0 0 1-4 12c-2 1-3 3-3 5a33 33 0 0 0-4 4 48 48 0 0 0 11 3l4-2c6-7 11-15 13-24a565 565 0 0 0 7-26l1 1a27 27 0 0 1 3-10 271 271 0 0 1 18-2l3-6h4c-3-3-3-5-1-7a253 253 0 0 1 3 11v3c-3 8-5 17-6 26 0 4 1 7 3 10l1 2a22 22 0 0 0 7 4c7 1 15 0 23-1v-13h-3c-11 2-15-2-13-12v-2l2-2a74 74 0 0 0 3-11 89 89 0 0 0 12-1c1 1 3 0 5-1v-2l2-5c2 0 3-1 2-3 1-3 2-3 4 0a291 291 0 0 0-1 13l3 10a24 24 0 0 1-1 9h1a162 162 0 0 0 2 17l3 7 13 4 1-3h3c0-3 1-5 4-6-5-1-5-3-1-6 0 2 1 3 4 3l1 2c-2 0-2 0 0 1v1a2 2 0 0 0-2 0 40 40 0 0 1-7 8 90 90 0 0 1-19 0c-3-1-5-3-6-6a399 399 0 0 1-2-16l1 1a36 36 0 0 0 0-13l-2-3a20 20 0 0 0-2-6 99 99 0 0 1-13 1l1 1a165 165 0 0 0-4 12h9l6 3a82 82 0 0 0 4 11c1 8-3 13-10 15-10 3-19 3-28 0-4-1-6-4-8-6l1-1c-6-10-7-21-2-31l-1-2-1-2a61 61 0 0 0-11 0 396 396 0 0 1-11 40c-3 8-8 15-14 21l2 3c11-6 22-7 34-2l6 7c8-6 16-10 26-10 9-1 16 3 21 11 8-7 17-11 28-11v1l4-10c1 4 1 9-2 13-3-2-4-1-4 2-1-3-1-3-2 0 0-2-1-3-2-3-3 0-3 1 0 2-3-1-5 0-6 2-2-2-3-1-2 2l-6 3c-3 1-5 3-5 6a4 4 0 0 1-2-1 53 53 0 0 0-1 7v1h-3a18 18 0 0 0-1-6l-1-1-1-1a10 10 0 0 0-2-4 101 101 0 0 0-7-5c-6-2-11-2-16-1a405 405 0 0 1-15 6h1v5c-1-1-2-2-1-3l-3-1a12 12 0 0 1-1-6l-9 1c0-4-1-5-4-3l-3-2a67 67 0 0 1-15 3c-2 1-3 3-2 5a26 26 0 0 0-8 9h-4a52 52 0 0 0 1-7l1-4-3-3c-9-1-17-1-25 1-1-4-2-4-4-2 2 3 2 4-2 5-1 8-4 9-7 1a11 11 0 0 1 1-3l5-3c4-6 4-12 2-18a531 531 0 0 0-46 2 224 224 0 0 1-7 31 497 497 0 0 1-1 14v1a2594 2594 0 0 0-5 22v7l15-1c2-4 3-9 3-13a200 200 0 0 0 4-15h23l2 8-3-2-1 1a57 57 0 0 0-15 1 1407 1407 0 0 0-6 23 16 16 0 0 1-3 5h-23c-3-1-4-2-4-4a6295 6295 0 0 1 18-79l-1-1c1-2 2-3 5-4l24-1c-7-3-11-8-14-14-8 11-20 17-35 17-10-1-20-3-28-8a15 15 0 0 1-3-3c0-8 3-15 9-21l-1-1c1-2 3-3 6-3a198 198 0 0 0 13 4h7c-11-4-19-12-24-22a13 13 0 0 1 0-5c0-7 2-13 5-18a310 310 0 0 1 10-10c2-3 5-4 9-5 14-3 28-1 41 6 1 3 2 7 1 11a123 123 0 0 1-10 15c-5 1-10 0-13-3a13 13 0 0 0-7 0c7 3 14 9 19 16l4-5zm50 43v2l-6 11c-5 4-4 7 2 10l-7 1a36 36 0 0 0 0-13c0-2-2-3-3-4l7-3a37 37 0 0 0 7-4z" style="opacity:1" transform="translate(-2 -2) scale(.1234)"/>
  <path fill="#48413c" d="M404 147c2 0 2 1 1 3a46 46 0 0 0-4 7c-1 1-2 2-3 1l6-11z" style="opacity:.42" transform="translate(-2 -2) scale(.1234)"/>
  <path fill="#e4b83d" d="M422 116a85 85 0 0 1-1 13 109 109 0 0 0-5 16l-5 7a127 127 0 0 0 4-12 247 247 0 0 0 7-24z" style="opacity:1" transform="translate(-2 -2) scale(.1234)"/>
  <path fill="#b7952f" d="m518 141 14 2-14 1v-3z" style="opacity:1" transform="translate(-2 -2) scale(.1234)"/>
  <path fill="#e9bf3f" d="M408 122c-7 19-20 26-40 21l-1-1c8 1 17 1 26-3l-2-1a18 18 0 0 1 6 0l1-7 2 2a21 21 0 0 0 0-5c1-2 2-2 4 0 0-3 2-5 4-6z" style="opacity:1" transform="translate(-2 -2) scale(.1234)"/>
  <path fill="#f8c622" d="M403 91a115 115 0 0 1 5 11 76 76 0 0 1 0 20c-2 1-4 3-4 6-2-2-3-2-4 0a21 21 0 0 1 0 5l-2-2a18 18 0 0 0-1 7 18 18 0 0 0-6 0l2 1c-9 4-18 4-26 3a57 57 0 0 1-6-7c-1-3-1-5 1-6a16 16 0 0 1-3-4 60 60 0 0 1 2-20l1-1 12-11 4 1-2 5v2c1-2 2-2 3 0l-4 1c-2 4-3 8-2 13-2 4-2 9-1 15a7 7 0 0 1 3 3l2-1c7 0 12-3 15-9 3-7 3-13 1-19l-3-4-10-2 3-1c-3-2-3-3 0-5l9-3 11 2z" style="opacity:1" transform="translate(-2 -2) scale(.1234)"/>
  <path fill="#e1b940" d="M345 128c-3 9-10 15-20 16s-20 0-29-3c-5-2-5-4-2-7 1 4 4 7 9 8a113 113 0 0 0 26 0 32 32 0 0 1 7-3 5 5 0 0 1 0-3c1-2 1-2 2 0l1-5 2 1a31 31 0 0 1 2-2l2-2z" style="opacity:1" transform="translate(-2 -2) scale(.1234)"/>
  <path fill="#351d05" d="M482 118c-2 10 2 14 13 12-13 4-18 0-13-12z" style="opacity:1" transform="translate(-2 -2) scale(.1234)"/>
  <path fill="#e2b743" d="M373 115c-1 6 0 11 4 17l-2 1a7 7 0 0 0-3-3c-1-6-1-11 1-15z" style="opacity:1" transform="translate(-2 -2) scale(.1234)"/>
  <path fill="#e3b83b" d="M360 105h1a60 60 0 0 0-2 20 16 16 0 0 0 3 4c-2 1-2 3-1 6a57 57 0 0 0 6 7l-6-4c-2-3-4-7-4-10-1-8 0-16 3-23z" style="opacity:1" transform="translate(-2 -2) scale(.1234)"/>
  <path fill="#d5ae3a" d="M470 102a226 226 0 0 1-4 29l1 7c-2-3-3-6-3-10 1-9 3-18 6-26z" style="opacity:1" transform="translate(-2 -2) scale(.1234)"/>
  <path fill="#f8c720" d="M343 130a31 31 0 0 0-2 2 4 4 0 0 1-2-1l-1 5c-1-2-1-2-2 0a5 5 0 0 0 0 3 32 32 0 0 0-7 3 113 113 0 0 1-26 0c-5-1-8-4-9-8 2-1 3-2 3-4 9 2 18 3 28 2a4 4 0 0 1 1 2c1-2 3-3 5-2 0-6-1-11-3-15a25 25 0 0 1 0-7c4 0 8 0 12 2 2 5 3 11 3 18z" style="opacity:1" transform="translate(-2 -2) scale(.1234)"/>
  <path fill="#56514d" d="m460 111 1 2c-5 10-4 21 2 31l-1 1c-4-5-6-10-6-16a163 163 0 0 1 4-18z" style="opacity:.416" transform="translate(-2 -2) scale(.1234)"/>
  <path fill="#423b37" d="m507 114 2 3a36 36 0 0 1 0 13l-1-1a171 171 0 0 1-1-15z" style="opacity:.808" transform="translate(-2 -2) scale(.1234)"/>
  <path fill="#ddb33f" d="M439 108v4a565 565 0 0 1-7 26 115 115 0 0 1 2-15 37 37 0 0 0 3-14l2-1z" style="opacity:1" transform="translate(-2 -2) scale(.1234)"/>
  <path fill="#2d1703" d="m383 101-5 5-2 6a38 38 0 0 0-1 15c2 4 5 4 10 2 1-4 3-6 7-6-3 6-8 9-15 9-4-6-5-11-4-17l4-10c1-2 3-4 6-4z" style="opacity:1" transform="translate(-2 -2) scale(.1234)"/>
  <path fill="#1c1005" d="m390 100 3 4c2 6 2 12-1 19-4 0-6 2-7 6-5 2-8 2-10-2a38 38 0 0 1 1-15l2-6 5-5c2-1 4-2 7-1z" style="opacity:1" transform="translate(-2 -2) scale(.1234)"/>
  <path fill="#cba63b" d="M403 91c1 1 3 2 4 5 4 8 5 17 1 26a76 76 0 0 0 0-20 115 115 0 0 0-5-11z" style="opacity:1" transform="translate(-2 -2) scale(.1234)"/>
  <path fill="#2b1501" d="M486 101h18c-2 1-4 2-5 1a89 89 0 0 1-12 1 74 74 0 0 1-3 11l-2 2 4-15z" style="opacity:1" transform="translate(-2 -2) scale(.1234)"/>
  <path fill="#e5bd48" d="M461 96a21 21 0 0 0-1 5h-19l-2 7v-8a63 63 0 0 1 20 0c-1-2 0-4 2-4z" style="opacity:1" transform="translate(-2 -2) scale(.1234)"/>
  <path fill="#f1c32e" d="m314 73-1 1 5 1v3a10 10 0 0 0-6 1l2 2a180 180 0 0 1-7 14v2l8-8 3 1a10 10 0 0 0 1-6c2-2 5-2 8-2-3 1-5 2-7 5-1 4 0 7 4 10l8 5c11 5 16 13 13 26l-2 2c0-7-1-13-3-18-4-2-8-2-12-2v7c2 4 3 9 3 15-2-1-4 0-5 2a4 4 0 0 0-1-2c-10 1-19 0-28-2 0 2-1 3-3 4a25 25 0 0 1 5-8c8 5 16 6 26 3 4-3 5-7 2-11a323 323 0 0 0-14-9c-3-1-4-3-5-5a33 33 0 0 1-3-6 113 113 0 0 1 0-15c1-5 4-8 9-10z" style="opacity:1" transform="translate(-2 -2) scale(.1234)"/>
  <path fill="#f9c71f" d="M332 102v3c1-1 3 0 4 2l-6-1a75 75 0 0 1-9 5 4 4 0 0 1-2-2 22 22 0 0 1 7-5 4 4 0 0 0-2-2 45 45 0 0 0-8 6c-2-1-3-2-3-4a5 5 0 0 0-3 0c-1-2 0-3 1-4l5-8 2 6a59 59 0 0 1 14 4z" style="opacity:1" transform="translate(-2 -2) scale(.1234)"/>
  <path fill="#ddb749" d="M305 83a113 113 0 0 0 0 15 33 33 0 0 0 3 6c-3-2-5-5-5-8a30 30 0 0 1 0-11l2-2z" style="opacity:1" transform="translate(-2 -2) scale(.1234)"/>
  <path fill="#291804" d="M324 97c-4-3-5-6-4-10 2-3 4-4 7-5 6-1 13 0 19 4a48 48 0 0 0 8-11c-3-3-6-4-9-4-2-1-4-2-5-1v-1a41 41 0 0 0 9-1c-2-1-2-2 1-2l5 3-3 1 4 6a49 49 0 0 0-5 6l1 1a15 15 0 0 1-6 4c-5-3-10-4-16-4l-4 1c-2 1-2 1 0 2a32 32 0 0 1-4 3 11 11 0 0 1 2 3c-2 1-2 3 0 5z" style="opacity:1" transform="translate(-2 -2) scale(.1234)"/>
  <path fill="#f8c720" d="M340 70c1-1 3 0 5 1s1 3-2 3a43 43 0 0 0 8 2 5 5 0 0 1-3 1 18 18 0 0 1-1 6 4 4 0 0 1-2 1c-6-3-12-4-18-2-3 0-6 0-8 2a10 10 0 0 1-1 6l-3-1-8 8v-2a180 180 0 0 0 7-14l-2-2a10 10 0 0 1 6-1v-3a13 13 0 0 1-5-1l1-1c3 0 5-1 8-3h18z" style="opacity:1" transform="translate(-2 -2) scale(.1234)"/>
  <path fill="#e4bc3c" d="M345 71c3 0 6 1 9 4a48 48 0 0 1-8 11c-6-4-13-5-19-4 6-2 12-1 18 2a4 4 0 0 0 2-1l1-6a5 5 0 0 0 3-1 43 43 0 0 1-8-2c3 0 4-2 2-3z" style="opacity:1" transform="translate(-2 -2) scale(.1234)"/>
  <path fill="#c4a13b" d="M340 69v1h-18c-3 2-5 3-8 3 8-5 16-7 26-4z" style="opacity:1" transform="translate(-2 -2) scale(.1234)"/>
  <path fill="#7a736f" d="M25 156h1c-6 5-7 12-3 19a81 81 0 0 1-3-3 30 30 0 0 1 0-11c1-3 3-4 5-5z" style="opacity:.459" transform="translate(-2 -2) scale(.1234)"/>
  <path fill="#c7a743" d="M408 157v4l11 1-4 2a48 48 0 0 1-11-3 33 33 0 0 1 4-4z" style="opacity:1" transform="translate(-2 -2) scale(.1234)"/>
  <path fill="#d46c3b" d="M728 160c7-1 15-2 24-1a236 236 0 0 1 10 4l2 3c-12-6-24-8-36-6z" style="opacity:1" transform="translate(-2 -2) scale(.1234)"/>
  <path fill="#524c48" d="M547 148c1-1 2 0 3 1-5 2-7 5-6 10l-4 10v-1a67 67 0 0 0 2-14 45 45 0 0 1 5-6z" style="opacity:.602" transform="translate(-2 -2) scale(.1234)"/>
  <path fill="#fa6a28" d="M558 184v2l-3 3-3 10c-2 8-2 16 0 24v8a32 32 0 0 1-13-2c-4-1-6 1-6 4h-1a61 61 0 0 1-11-1c-3-1-5-3-4-5a19 19 0 0 1-6-1v-1a52 52 0 0 1-2-15 52 52 0 0 1 2-14 6 6 0 0 1 1-3v-1c2-4 5-6 8-8a40 40 0 0 0 11-5c5-1 10-2 15-1a103 103 0 0 0 4-20c4-1 8-2 13-1a117 117 0 0 0-5 27z" style="opacity:1" transform="translate(-2 -2) scale(.1234)"/>
  <path fill="#300d05" d="M752 159a56 56 0 0 1 15 4c3 3 5 7 5 12a786 786 0 0 1-5-7 18 18 0 0 0-3-2l-2-3a236 236 0 0 0-10-4z" style="opacity:1" transform="translate(-2 -2) scale(.1234)"/>
  <path fill="#1c1107" d="m184 89 3 1V78a184 184 0 0 0 23-46 81 81 0 0 1 6-5c9-3 17 0 22 10 2 11-1 22-9 31-9 12-20 20-34 25a97 97 0 0 1 24 20 78 78 0 0 1 9-6 172 172 0 0 0 28-11 4241 4241 0 0 1 17-11c6-3 12-1 16 6 6 13 2 23-10 30-16 8-32 11-49 9a151 151 0 0 1 8 19c10 3 19 8 28 15a43 43 0 0 1-9 1 49 49 0 0 1-9-7 85 85 0 0 0-58-1c-15 2-29 7-41 15-6 1-11 4-15 8a187 187 0 0 0-42 30 121 121 0 0 0-19 18l-2 2c-1 0-2 1-2 3a9132 9132 0 0 0 234 0l2-2a174 174 0 0 1-7-14c-1-2-1-4 1-5a10 10 0 0 1-4-1c-1-4-3-7-5-9l1-1a24 24 0 0 0-5-3l-8-11a13 13 0 0 0-1-5c-1-2-1-2-2 0a37 37 0 0 0-6-8l1-1-4-2c1-2 0-3-1-4 0-2 1-2 2-2 12 9 22 21 30 36a266 266 0 0 1 13 28c2 5 0 8-4 11H65a15 15 0 0 1-3-3 54 54 0 0 1 3-11 2 2 0 0 0 2-1 44 44 0 0 0 5-6c2-4 5-7 8-9a73 73 0 0 1-6-9 103 103 0 0 0-14 19c-8 7-14 6-19-3-1-10 2-17 11-21 6-6 13-8 21-5a2110 2110 0 0 1-3-21c-1-2-2-2-2 0a5 5 0 0 0-1-3l-4 4a152 152 0 0 0-31 9c-4-1-7-3-9-5-4-7-3-14 3-19h-1c10-7 22-8 35-4 3 1 5 3 7 6a51 51 0 0 0 3-4 2 2 0 0 0 0 2 859 859 0 0 0 7-21l-2-1-23-4-20-1-5-3 1-1c-6-9-4-16 5-22h-1c9-3 19-3 29 2 9 3 16 10 20 19l4-2c5-9 12-16 20-23-3 0-5 0-6 2l-4-2C85 89 75 81 64 74a15 15 0 0 1-3-3 2 2 0 0 0 2-1c-5-8-3-15 6-20a2 2 0 0 0-2 0c7-5 15-4 22 2 12 11 20 25 22 42a705 705 0 0 1 28-10c-2-1-2-2-2-3l1-1a420 420 0 0 1-2-28 363 363 0 0 1-3-18l1-6a503 503 0 0 0 4-6c5-4 11-4 18-1 6 6 9 14 9 23-1 14-5 26-12 38a165 165 0 0 0 21 3l10 4z" style="opacity:1" transform="translate(-2 -2) scale(.1234)"/>
  <path fill="#f3c52e" d="M50 165a146 146 0 0 0-16 5h-5c-3-5-1-9 4-10 6-2 13-2 20 0l4 2-7 3z" style="opacity:1" transform="translate(-2 -2) scale(.1234)"/>
  <path fill="#f6c627" d="m115 181-3 2-1-2a78 78 0 0 1-2-25c3-4 4-7 5-11a15 15 0 0 0 4-5c1-2 3-2 4 0a13 13 0 0 0 1-5h3a1946 1946 0 0 1-4 10c-4-1-5 0-3 3-2 2-3 5-4 9v24z" style="opacity:1" transform="translate(-2 -2) scale(.1234)"/>
  <path fill="#d4b144" d="m50 165 7-3-4-2c-7-2-14-2-20 0 6-3 13-3 21-1 2 0 4 2 6 4l-10 2z" style="opacity:1" transform="translate(-2 -2) scale(.1234)"/>
  <path fill="#f9c61f" d="M235 157c10 2 19 7 28 14a325 325 0 0 1 15 16 2557 2557 0 0 1 16 26 2751 2751 0 0 1 5 18H73v-3a121 121 0 0 1 19-18c2-1 5-2 7-5h8l3-2c-2-5 0-8 6-8l2-3 7-1a4 4 0 0 0-2-2h9l5 2-5-8a12 12 0 0 1 2-3c4-4 9-7 15-8a151 151 0 0 0 11-3 33 33 0 0 1 7 3l3-1a11 11 0 0 1-5-4c2-2 4-2 6 1a9 9 0 0 1 2-3 83 83 0 0 0 17-8 148 148 0 0 1 24-2 90 90 0 0 1 21 2z" style="opacity:1" transform="translate(-2 -2) scale(.1234)"/>
  <path fill="#ddb640" d="M81 143a58 58 0 0 1-3 17v19a73 73 0 0 1 3-36z" style="opacity:1" transform="translate(-2 -2) scale(.1234)"/>
  <path fill="#cfa63b" d="M209 153c9-1 17 0 26 4a90 90 0 0 0-21-2 148 148 0 0 0-24 2c6-2 12-4 19-4z" style="opacity:1" transform="translate(-2 -2) scale(.1234)"/>
  <path fill="#f7c622" d="m163 92 13 3c4 3 10 5 16 7 16 9 28 23 35 42a367 367 0 0 1-27 1 112 112 0 0 0-13 3 46 46 0 0 0-41-18 93 93 0 0 0-11 1l1 1c-2 0-4 1-5 3-1-2-2-2-3 0a20 20 0 0 1-3-3l8-2c-1-2 0-3 1-4a54 54 0 0 1 9-4 181 181 0 0 1 23 1l2 2 8 1a7 7 0 0 1 2 4c2-2 2-4 0-6a18 18 0 0 0-6 0l-2-2-2-3c-11-5-23-6-34-2l-1 2c-11 4-20 10-26 20-1-1-2-2-3-1 0 3-1 7-4 10a10 10 0 0 0-1-4l-1 2a20 20 0 0 1 0 10c-4 6-4 13-1 20-3 5-3 10-1 15l-5 3-3 6-3-1-3-5c-2-4-4-8-4-11v-23a58 58 0 0 0 3-17c7-23 23-39 46-47a171 171 0 0 0 18-4h18z" style="opacity:1" transform="translate(-2 -2) scale(.1234)"/>
  <path fill="#e4b738" d="M162 122h-19a54 54 0 0 0-9 4c-1 1-2 2-1 4l-8 2a20 20 0 0 0 3 3c1-2 2-2 3 0 1-2 3-3 5-3l-1-1a93 93 0 0 1 11-1c-23 7-33 23-29 48l-2 3v-24c1-4 2-7 4-9-2-3-1-4 3-3l4-10h-3a13 13 0 0 1-1 5c-1-2-3-2-4 0a15 15 0 0 1-4 5c-1 4-2 7-5 11a78 78 0 0 0 2 25c-8-20-3-37 13-51 11-9 24-12 38-8z" style="opacity:1" transform="translate(-2 -2) scale(.1234)"/>
  <path fill="#cda330" d="m166 123 6 1a18 18 0 0 1 6 0c2 2 2 4 0 6a7 7 0 0 0-2-4 100 100 0 0 1-8-1l-2-2z" style="opacity:1" transform="translate(-2 -2) scale(.1234)"/>
  <path fill="#d0a93c" d="M65 118c3 1 5 3 6 7a267 267 0 0 0-37-4c10-1 20 0 31 1v-4z" style="opacity:1" transform="translate(-2 -2) scale(.1234)"/>
  <path fill="#f3c52f" d="M55 112c3 1 7 3 10 6v4a298 298 0 0 0-31-1l-3-2a12 12 0 0 1 1-7c2-3 5-4 9-3 5-1 9 0 14 3z" style="opacity:1" transform="translate(-2 -2) scale(.1234)"/>
  <path fill="#e2bb3d" d="M170 122a390 390 0 0 0-15-5 64 64 0 0 0-22 2l1-2c11-4 23-3 34 2l2 3z" style="opacity:1" transform="translate(-2 -2) scale(.1234)"/>
  <path fill="#392005" d="M55 112c-5-3-9-4-14-3-4-1-7 0-9 3-1-2 0-3 1-4a28 28 0 0 0 5-1 294 294 0 0 1 15 2l2 3z" style="opacity:1" transform="translate(-2 -2) scale(.1234)"/>
  <path fill="#595050" d="M81 124c6-8 12-16 20-23a2 2 0 0 0-2 0c1-2 3-2 6-2-8 7-15 14-20 23l-4 2z" style="opacity:.675" transform="translate(-2 -2) scale(.1234)"/>
  <path fill="#f9c620" d="M268 117h-1a137 137 0 0 1-35 3c-2 0-3-1-3-2a176 176 0 0 0 22-10h9c0-5 2-8 7-9l1-3 7-2c4 1 6 4 7 9-2 1-2 3-2 6l-10 4 1 1c-2 0-3 1-3 3z" style="opacity:1" transform="translate(-2 -2) scale(.1234)"/>
  <path fill="#e0b93a" d="M268 117c0-2 1-3 3-3l-1-1 10-4c0-3 0-5 2-6-1-5-3-8-7-9l-7 2c3-5 8-6 13-2 4 6 3 12-2 17a42 42 0 0 1-11 6z" style="opacity:1" transform="translate(-2 -2) scale(.1234)"/>
  <path fill="#e3bb39" d="m268 96-1 3c-5 1-7 4-7 9h-9a176 176 0 0 1-22 10c0 1 1 2 3 2a137 137 0 0 0 35-3c-8 3-17 5-25 5l-11-1c-3 0-5-1-5-3 4-4 10-7 17-8a204 204 0 0 0 25-14z" style="opacity:1" transform="translate(-2 -2) scale(.1234)"/>
  <path fill="#dfb940" d="M176 95c6 0 11 3 16 7-6-2-12-4-16-7z" style="opacity:1" transform="translate(-2 -2) scale(.1234)"/>
  <path fill="#cba741" d="M163 92h-18a171 171 0 0 1-18 4c11-5 23-7 36-4z" style="opacity:1" transform="translate(-2 -2) scale(.1234)"/>
  <path fill="#3c382f" d="M273 85a4241 4241 0 0 0-17 11c-1-1 0-2 1-3l7-5a26 26 0 0 1 9-3z" style="opacity:.345" transform="translate(-2 -2) scale(.1234)"/>
  <path d="M155 81c1 0 1 0 0 0z" style="opacity:.00799997" transform="translate(-2 -2) scale(.1234)"/>
  <path fill="#f4c32a" d="M84 60c10 8 16 18 18 32a8 8 0 0 1-4-1 96 96 0 0 0-14-14c-2-4-4-6-7-8-2 0-3 0-4-2l1-1a15 15 0 0 1-4-4l2-2-1-1a41 41 0 0 1 5-2l8 3z" style="opacity:1" transform="translate(-2 -2) scale(.1234)"/>
  <path fill="#e9bb39" d="M223 61c-6 9-14 16-23 21a19 19 0 0 1-8 2c1-7 5-12 10-16a82 82 0 0 1-3 10l5 1v-3l4-1a4 4 0 0 0-1-2 24 24 0 0 1 6-2l6-12a18 18 0 0 0 4 2z" style="opacity:1" transform="translate(-2 -2) scale(.1234)"/>
  <path fill="#f7c721" d="M228 38v11a36 36 0 0 0-4 11l-1 1a18 18 0 0 1-4-2l-6 12a24 24 0 0 0-6 2l1 2-4 1v3a13 13 0 0 1-5-1 82 82 0 0 0 3-10 399 399 0 0 0 12-29c1-3 4-4 7-4a33 33 0 0 1 7 3z" style="opacity:1" transform="translate(-2 -2) scale(.1234)"/>
  <path fill="#241504" d="m141 45 2 11v21l4-1c4-7 7-15 8-23 1-7 1-14-1-21-4-6-9-7-14-3 4-6 8-6 13 0l1-1 2 4 2 25c1-1 2 0 3 1-2 1-2 3 0 4a23 23 0 0 1-7 5l-1 12a7 7 0 0 1-3-3l-8 3-1-34z" style="opacity:1" transform="translate(-2 -2) scale(.1234)"/>
  <path fill="#c5a14d" d="m143 56 1 20h3l-4 1V56z" style="opacity:1" transform="translate(-2 -2) scale(.1234)"/>
  <path fill="#e4ba37" d="m84 60-8-3a41 41 0 0 0-5 2l1 1-2 2a15 15 0 0 0 4 4 4 4 0 0 1-1 1c1 2 2 2 4 2 3 2 5 4 7 8a200 200 0 0 0-14-9c-5-3-6-7-1-10 5-5 10-4 15 2z" style="opacity:1" transform="translate(-2 -2) scale(.1234)"/>
  <path fill="#dbb445" d="m228 38 2 2c1 7-1 14-6 20a36 36 0 0 1 4-11V38z" style="opacity:1" transform="translate(-2 -2) scale(.1234)"/>
  <path fill="#706968" d="M216 27a81 81 0 0 0-6 5 184 184 0 0 1-23 46v12l-3-1c2-1 2-2 0-3v-6c10-16 19-32 25-49 2-3 4-4 7-4z" style="opacity:.027" transform="translate(-2 -2) scale(.1234)"/>
  <path fill="#cdaa3f" d="M228 38a33 33 0 0 0-7-3c-3 0-6 1-7 4 4-8 8-8 14-1z" style="opacity:1" transform="translate(-2 -2) scale(.1234)"/>
  <path fill="#f6c627" d="M155 53c-1 8-4 16-8 23h-3l-1-20-2-11v-3a72 72 0 0 1 0-12c7-3 11-1 13 6a145 145 0 0 1 1 17z" style="opacity:1" transform="translate(-2 -2) scale(.1234)"/>
  <path fill="#d7b345" d="M155 53a145 145 0 0 0-1-17c-2-7-6-9-13-6a72 72 0 0 0 0 12c-3-5-3-9-1-13 5-4 10-3 14 3 2 7 2 14 1 21z" style="opacity:1" transform="translate(-2 -2) scale(.1234)"/>
  <path fill="#d6b248" d="M99 164a76 76 0 0 0 4 25l-2 2-3-21 1-6z" style="opacity:1" transform="translate(-2 -2) scale(.1234)"/>
  <path fill="#241503" d="M209 153c13-2 26 0 39 5a49 49 0 0 0 9 7 43 43 0 0 0 9-1l1 1c-1 0-2 0-2 2 1 1 2 2 1 4l4 2-1 1a37 37 0 0 1 6 8c1-2 1-2 2 0a13 13 0 0 1 1 5 325 325 0 0 0-15-16c-9-7-18-12-28-14-9-4-17-5-26-4z" style="opacity:1" transform="translate(-2 -2) scale(.1234)"/>
  <path fill="#edbe32" d="M190 157a83 83 0 0 1-17 8 9 9 0 0 0-2 3c-2-3-4-3-6-1a11 11 0 0 0 5 4l-3 1a33 33 0 0 0-7-3 151 151 0 0 1-11 3c12-8 26-13 41-15z" style="opacity:1" transform="translate(-2 -2) scale(.1234)"/>
  <path fill="#601900" d="M354 173h29v1c-10-1-20 0-29 1v-2z" style="opacity:1" transform="translate(-2 -2) scale(.1234)"/>
  <path fill="#220e05" d="M825 171h1l3 3 1-2a896 896 0 0 0 19 2c-2 1-3 2-2 4h-1l-1-1c-5-1-10-2-15-1v4h-3c-17-8-31-5-44 7a240 240 0 0 1-1-6c2-2 3-1 4 1 3-5 6-8 11-10l5 1c3-3 6-4 11-1a4 4 0 0 0 1-1c2 3 4 3 6 1l5 3v-4z" style="opacity:1" transform="translate(-2 -2) scale(.1234)"/>
  <path fill="#200e04" d="M419 178c-10-3-19-3-28 0-3 0-4 2-4 4a255 255 0 0 0-7 31 156 156 0 0 0-4 20h14l-15 3-1-9-1-1-2 4-1-1a150 150 0 0 1 4-17l-2-8 1-2 2-6 1-1 1-7h-24l1-10v-3a219 219 0 0 1 29-1h1l-5 3a11 11 0 0 0-1 3c3 8 6 7 7-1 4-1 4-2 2-5 2-2 3-2 4 2 8-2 16-2 25-1l3 3z" style="opacity:1" transform="translate(-2 -2) scale(.1234)"/>
  <path fill="#330b01" d="m545 175-18 3c-3 1-6 3-7 6-3 2-6 4-8 8a53 53 0 0 1 1-7l2 1c0-3 2-5 5-6l6-3a63 63 0 0 1 19-2z" style="opacity:1" transform="translate(-2 -2) scale(.1234)"/>
  <path fill="#362403" d="M77 162c-1 5 0 11 1 17v4c-4-7-4-14-1-21z" style="opacity:1" transform="translate(-2 -2) scale(.1234)"/>
  <path fill="#cb663b" d="M458 183c-7-6-15-8-24-5 7-4 14-3 22 1l2 4z" style="opacity:1" transform="translate(-2 -2) scale(.1234)"/>
  <path fill="#de6b36" d="M679 179a56 56 0 0 1-11-1c-5 0-9 1-13 4a29 29 0 0 1-7-2 7 7 0 0 0-4 2c-1-2-2-3-1-4a368 368 0 0 0-22 2 72 72 0 0 1-4 20 51 51 0 0 0-2 4 52 52 0 0 1 1-7l4-18c8-3 17-4 26-3a54 54 0 0 0 8 4c6-4 14-5 22-4a81 81 0 0 1 3 3z" style="opacity:1" transform="translate(-2 -2) scale(.1234)"/>
  <path fill="#350d03" d="M681 224a204 204 0 0 0 5-30c0-5-1-9-3-12l-4-3a81 81 0 0 0-3-3c-8-1-16 0-22 4a54 54 0 0 1-8-4c-9-1-18 0-26 3l-4 18v-4a176 176 0 0 0 2-15 24 24 0 0 0 6-3h24c4 3 8 3 13 0h19v3a10 10 0 0 1 6 1 4 4 0 0 0-1 2 53 53 0 0 1 2 14l-1 12-5 17z" style="opacity:1" transform="translate(-2 -2) scale(.1234)"/>
  <path fill="#d86a38" d="M550 156c5-1 9 0 14 2a275 275 0 0 0-5 26h-1a117 117 0 0 1 5-27c-5-1-9 0-13 1a103 103 0 0 1-4 20c-5-1-10 0-15 1a40 40 0 0 1-11 5c1-3 4-5 7-6l18-3a399 399 0 0 0 5-19z" style="opacity:1" transform="translate(-2 -2) scale(.1234)"/>
  <path fill="#f0c32f" d="M107 139c-5 7-7 16-8 25l-1 6 3 21a8869 8869 0 0 0-15 12c-3-3-4-6-4-9l3 5 3 1 3-6 5-3c-2-5-2-10 1-15-3-7-3-14 1-20a20 20 0 0 0 0-10l1-2a10 10 0 0 1 1 4c3-3 4-7 4-10 1-1 2 0 3 1z" style="opacity:1" transform="translate(-2 -2) scale(.1234)"/>
  <path fill="#1b1008" d="M874 211h-5a64 64 0 0 1 4-13 10 10 0 0 1 1 4l1-1v-9c0 3 1 3 3 1l-2-3c0-4 2-8 5-11-2-1-2-3-2-4a129 129 0 0 0-16 0c-1 1-2 2-1 4a52 52 0 0 0-1 7 464 464 0 0 0-9 23h-1c-2-10-4-21-4-31-1-2 0-3 2-4a896 896 0 0 1-19-2l-1 2-3-3a108 108 0 0 1 25-1 61 61 0 0 1 3 7 31 31 0 0 1 5-6 105 105 0 0 1 25-1c2 3 3 6 2 11a200 200 0 0 1-12 30z" style="opacity:1" transform="translate(-2 -2) scale(.1234)"/>
  <path fill="#d0693c" d="M875 186v-7a61 61 0 0 0-11 0 69 69 0 0 1-3 7 52 52 0 0 1 1-7c5-2 10-3 16-2l-3 9z" style="opacity:1" transform="translate(-2 -2) scale(.1234)"/>
  <path fill="#270d04" d="M497 176c-13-2-22 2-29 12a36 36 0 0 0-4 7h-3l-1-8-2-4-2-4c-8-4-15-5-22-1-1-1-2 0-2 1a6 6 0 0 0-3 1c-1-2 0-4 2-5a67 67 0 0 0 15-3l3 2c3-2 4-1 4 3l9-1a12 12 0 0 0 1 6l3 1c-1 1 0 2 1 3v-5h-1a405 405 0 0 0 15-6c5-1 10-1 16 1z" style="opacity:1" transform="translate(-2 -2) scale(.1234)"/>
  <path fill="#fa6a29" d="m679 179 4 3c2 3 3 7 3 12a204 204 0 0 1-5 30l-1 1c-1 1-2 3-1 5a55 55 0 0 1-12 1 72 72 0 0 0 2-19v-4l2-8c3-10 0-13-9-10-1-1-2 0-2 1h-1l-1 1c-4 12-7 25-8 39h-11a944 944 0 0 0 6-34 30 30 0 0 0-1-7c-2-1-3-2-4-1-3-1-6 0-8 1-2 0-3 0-3 2a943 943 0 0 1-7 39h-11a431 431 0 0 0 4-27 51 51 0 0 1 2-4 72 72 0 0 0 4-20 368 368 0 0 1 22-2c-1 1 0 2 1 4a7 7 0 0 1 4-2 29 29 0 0 0 7 2c4-3 8-4 13-4l11 1z" style="opacity:1" transform="translate(-2 -2) scale(.1234)"/>
  <path fill="#e96c35" d="M354 175v3c-2 3-3 7-2 11l23 3v4l-2 6h-25a105 105 0 0 0-3 17l-2 5-2 2-1-4a45 45 0 0 1 3-12 11 11 0 0 0-1-3c2-2 4-3 5-6h26a24 24 0 0 1 1-9l-24-2v-6c0-4 2-7 4-9z" style="opacity:1" transform="translate(-2 -2) scale(.1234)"/>
  <path fill="#fb6a27" d="M391 226a31 31 0 0 1-11-1 9 9 0 0 0 2-3v-14h3c-1-9 0-18 2-26 9-4 18-5 29-3 0 3-1 6-4 7a98 98 0 0 1-14 1 217 217 0 0 0-7 39z" style="opacity:1" transform="translate(-2 -2) scale(.1234)"/>
  <path fill="#d36938" d="M497 176a101 101 0 0 1 7 5 10 10 0 0 1 2 4c-2-1-3-2-3-4a61 61 0 0 0-14-4 80 80 0 0 0-13 4l-8 7c7-10 16-14 29-12z" style="opacity:1" transform="translate(-2 -2) scale(.1234)"/>
  <path fill="#bd613b" d="m432 179-6 6-5 4a26 26 0 0 1 8-9 6 6 0 0 1 3-1z" style="opacity:1" transform="translate(-2 -2) scale(.1234)"/>
  <path fill="#6b6662" d="M718 157h1c-2 1-3 3-3 6a1717 1717 0 0 1-15 72c-2-3-2-6-1-8a67 67 0 0 1 5-17 430 430 0 0 1 9-46c0-3 2-6 4-7z" style="opacity:.435" transform="translate(-2 -2) scale(.1234)"/>
  <path fill="#e16b37" d="m419 178-1 4c-2 2-3 4-3 7l-2 1a33 33 0 0 0-13-1 32 32 0 0 0-2 7v2l-7 28a217 217 0 0 1 7-39 98 98 0 0 0 14-1c3-1 4-4 4-7-11-2-20-1-29 3 0-2 1-4 4-4 9-3 18-3 28 0z" style="opacity:1" transform="translate(-2 -2) scale(.1234)"/>
  <path fill="#390a02" d="M845 177h-14a678 678 0 0 0 2 31l-2-1a137 137 0 0 0-3-23l-4 12a101 101 0 0 1 3-16h3v-4c5-1 10 0 15 1z" style="opacity:1" transform="translate(-2 -2) scale(.1234)"/>
  <path fill="#4f1101" d="m354 178-1 10h24a25 25 0 0 1-1 7l-1 1v-4l1-3h-24c-1-4 0-8 2-11z" style="opacity:1" transform="translate(-2 -2) scale(.1234)"/>
  <path fill="#d8744e" d="M352 189h24l-1 3-23-3z" style="opacity:1" transform="translate(-2 -2) scale(.1234)"/>
  <path fill="#e86b33" d="M426 185c-2 6 1 8 7 4a8 8 0 0 0-4 0v-3c4 1 8 1 12-1 4 1 6 3 8 7a22 22 0 0 0-2 10h-18c-2-3-1-5 1-7l-9-4c0 2-1 3-3 5-4 10-3 21 2 32l-2-1c-4-8-5-16-4-24a71 71 0 0 0 3-9l3-5h1l5-4z" style="opacity:1" transform="translate(-2 -2) scale(.1234)"/>
  <path fill="#c46134" d="M720 179a124 124 0 0 1-5 24l-1 1c1-9 3-18 6-25z" style="opacity:1" transform="translate(-2 -2) scale(.1234)"/>
  <path fill="#481106" d="M640 189c3 2 4 6 3 11l-1 3a34 34 0 0 0-1-11c-4-2-7-2-9 0v-2c2-1 5-2 8-1z" style="opacity:1" transform="translate(-2 -2) scale(.1234)"/>
  <path fill="#3a322e" d="m52 196-1-1c5-5 12-7 20-6a314 314 0 0 1-3-19 2119 2119 0 0 0 5 22c-8-4-15-2-21 4z" style="opacity:1" transform="translate(-2 -2) scale(.1234)"/>
  <path fill="#401006" d="M418 182a52 52 0 0 1-1 7h3l-3 5c-2-2-3-3-5-3a30 30 0 0 0-11 0l-3 5a32 32 0 0 1 2-7 33 33 0 0 1 13 1l2-1c0-3 1-5 3-7z" style="opacity:1" transform="translate(-2 -2) scale(.1234)"/>
  <path fill="#dd6c3a" d="m458 183 2 4-2 16h-1a145 145 0 0 1 2-12 330 330 0 0 0-1-8z" style="opacity:1" transform="translate(-2 -2) scale(.1234)"/>
  <path fill="#cc683a" d="m845 177 1 1a1117 1117 0 0 0-1 24 599 599 0 0 0-1-23h-12a302 302 0 0 0 5 43 110 110 0 0 1-4-14 678 678 0 0 1-2-31h14z" style="opacity:1" transform="translate(-2 -2) scale(.1234)"/>
  <path fill="#240d04" d="M642 203a704 704 0 0 1-5 30 98 98 0 0 0 14-1c0-4 1-8 3-11l-2 12-1 1a38 38 0 0 1-15 0 12 12 0 0 1-1-6h-3v-5h4a72 72 0 0 1 0-12 38 38 0 0 0 5-14h-3a188 188 0 0 0-3 11 43 43 0 0 1-2-9l-1 1v-8c2-2 5-2 9 0a34 34 0 0 1 1 11z" style="opacity:1" transform="translate(-2 -2) scale(.1234)"/>
  <path fill="#280e05" d="M874 211a409 409 0 0 1-3 6c-4-6-6-5-6 3a7 7 0 0 1-3-2 278 278 0 0 1-3 13 4 4 0 0 1-2-1 31 31 0 0 0-4 3l7-13a181 181 0 0 0 15-34l3-9c-6-1-11 0-16 2-1-2 0-3 1-4a129 129 0 0 1 16 0c0 1 0 3 2 4-3 3-5 7-5 11l2 3c-2 2-3 2-3-1v9l-1 1a10 10 0 0 0-1-4 64 64 0 0 0-4 13h5z" style="opacity:1" transform="translate(-2 -2) scale(.1234)"/>
  <path fill="#fc6a27" d="M354 173v2c-2 2-4 5-4 9v6l24 2a24 24 0 0 0-1 9h-26c-1 3-3 4-5 6a11 11 0 0 1 1 3 45 45 0 0 0-3 12l1 4v5h-12a732 732 0 0 1 11-52 168 168 0 0 1 3-18h41a72 72 0 0 0-1 11c-10-1-20 0-29 1z" style="opacity:1" transform="translate(-2 -2) scale(.1234)"/>
  <path fill="#4b160b" d="m460 187 1 8h3v1a23 23 0 0 0-3 6l-1-1-2 2 2-16z" style="opacity:1" transform="translate(-2 -2) scale(.1234)"/>
  <path fill="#280d03" d="M616 193v4a52 52 0 0 0-1 7l-6 23a139 139 0 0 0 2-22 316 316 0 0 1-8 22 479 479 0 0 0-9 4l12-15v-2l2-6v-18c0-3-2-5-3-6l-2-4c-8-4-15-6-23-3 3-4 7-6 13-6l1-1 6 2 1 3h5a28 28 0 0 0 5 9c-2 1-3 3-2 5h4a52 52 0 0 0-1 7h3c-1-2 0-3 1-3z" style="opacity:1" transform="translate(-2 -2) scale(.1234)"/>
  <path fill="#ce6639" d="M827 180a101 101 0 0 0-3 16l-2 4a75 75 0 0 1 3-17 5 5 0 0 0-1-3c-16-7-29-4-40 8-8 11-10 23-5 37l-2-1c-3-12-2-22 3-32l3-5c13-12 27-15 44-7z" style="opacity:1" transform="translate(-2 -2) scale(.1234)"/>
  <path fill="#d96a3b" d="M605 184c1 1 3 3 3 6v18l-2 6c1-11 1-21-1-30z" style="opacity:1" transform="translate(-2 -2) scale(.1234)"/>
  <path fill="#310a00" d="M846 178h1c0 10 2 21 4 31-1 4-2 4-3 1a1117 1117 0 0 1-2-32z" style="opacity:1" transform="translate(-2 -2) scale(.1234)"/>
  <path fill="#340a01" d="M772 175c1 0 2 1 2 3l1 17 1 2c1-3 2-4 4-5-5 10-6 20-3 32-2-6-3-11-3-17v-7a51 51 0 0 0-2 4 72 72 0 0 0 2-16l-1-7a19 19 0 0 0-1-6z" style="opacity:1" transform="translate(-2 -2) scale(.1234)"/>
  <path fill="#f96a29" d="M728 160c12-2 24 0 36 6a18 18 0 0 1 3 2 786 786 0 0 0 5 7 19 19 0 0 1 1 6l-3 23a81 81 0 0 1-8 16l-4 5-2 1c-15 8-30 10-46 6a607 607 0 0 0 4-28l1-1a124 124 0 0 0 5-24 171 171 0 0 1 3-18c1-1 3-2 5-1z" style="opacity:1" transform="translate(-2 -2) scale(.1234)"/>
  <path fill="#cd6432" d="M752 175h4c-1 2 0 3 2 5v16a56 56 0 0 0-2-16c-1-3-3-4-4-5z" style="opacity:1" transform="translate(-2 -2) scale(.1234)"/>
  <path fill="#290c03" d="M752 175c1 1 3 2 4 5a56 56 0 0 1 2 16 41 41 0 0 1-6 13 17 17 0 0 1 1-8c1 1 2 0 2-2a101 101 0 0 1-1-7l1-10c-1-2-2-2-3-1a15 15 0 0 0-1-5h-14a1300 1300 0 0 1-1 14 190 190 0 0 0-6 11l1-9a132 132 0 0 0 5-19c5-1 10 0 16 2z" style="opacity:1" transform="translate(-2 -2) scale(.1234)"/>
  <path fill="#cc6339" d="M752 175c-6-2-11-3-16-2a132 132 0 0 1-5 19 171 171 0 0 1 4-21h12l5 4z" style="opacity:1" transform="translate(-2 -2) scale(.1234)"/>
  <path fill="#190e06" d="M752 209v1a8 8 0 0 0-4 0c-4 5-8 7-14 7-1-4-1-4-3-1a4 4 0 0 0-1-1v-14a190 190 0 0 1 6-11 25 25 0 0 1-1-5l2-9a38 38 0 0 0 14 0 15 15 0 0 1 1 5c1-1 2-1 3 1l-1 10 1 7c0 2-1 3-2 2a17 17 0 0 0-1 8z" style="opacity:1" transform="translate(-2 -2) scale(.1234)"/>
  <path fill="#e3bc43" d="M59 205v-3a54 54 0 0 0-9 4c3-6 9-9 16-8a35 35 0 0 1-7 7z" style="opacity:1" transform="translate(-2 -2) scale(.1234)"/>
  <path fill="#fa6a29" d="m458 183 1 8a145 145 0 0 0-2 12l-1 1a8 8 0 0 0-4 0l-4 4-18 3-1 2c-1 2 0 5 3 7l1 2c5 1 10 0 15-2l2 11c-5-1-10 0-14 2a73 73 0 0 1-16-5c-5-11-6-22-2-32 2-2 3-3 3-5l9 4c-2 2-3 4-1 7h18a22 22 0 0 1 2-10c-2-4-4-6-8-7-4 2-8 2-12 1v3a8 8 0 0 1 4 0c-6 4-9 2-7-4l6-6c0-1 1-2 2-1 9-3 17-1 24 5z" style="opacity:1" transform="translate(-2 -2) scale(.1234)"/>
  <path fill="#370c03" d="M429 202c0-8 5-13 13-14 4 0 6 3 4 8l-3 3a35 35 0 0 1-14 3z" style="opacity:1" transform="translate(-2 -2) scale(.1234)"/>
  <path fill="#1a0d07" d="M443 190c2 2 2 4 0 7-4 2-8 3-12 2a7 7 0 0 1 3-2c-2-2-1-4 2-5 1-2 3-2 5 0l2-2z" style="opacity:1" transform="translate(-2 -2) scale(.1234)"/>
  <path fill="#d36736" d="M542 190v8l-3 8a169 169 0 0 1 3-16z" style="opacity:1" transform="translate(-2 -2) scale(.1234)"/>
  <path fill="#e56c37" d="M558 186c-4 12-6 24-6 37-2-8-2-16 0-24l3-10 3-3z" style="opacity:1" transform="translate(-2 -2) scale(.1234)"/>
  <path fill="#411106" d="M632 193v7a217 217 0 0 0-6 27l-2 3a605 605 0 0 1 8-37z" style="opacity:1" transform="translate(-2 -2) scale(.1234)"/>
  <path fill="#230e04" d="M833 208a110 110 0 0 0 4 14l1 7-2 4c0-5-1-8-4-10a85 85 0 0 1-2-18h-4a43 43 0 0 1-3 10l-1 17c-3-11-3-21 0-31v-1l2-4 4-12a137 137 0 0 1 3 23l2 1z" style="opacity:1" transform="translate(-2 -2) scale(.1234)"/>
  <path fill="#f1c230" d="M134 180a12 12 0 0 0-2 3l5 8-5-2h-9a4 4 0 0 1 2 2 27 27 0 0 1-7 1l-2 3c-6 0-8 3-6 8l-3 2h-8c-2 3-5 4-7 5a187 187 0 0 1 42-30z" style="opacity:1" transform="translate(-2 -2) scale(.1234)"/>
  <path fill="#f96a29" d="m506 185 1 1c1 6 0 12-4 18a18 18 0 0 0-6 0l1 2c-8 4-16 6-24 6-1 4 1 7 6 9h17l-1 9-12 3a96 96 0 0 1-13-3c-2-2-3-5-3-7-1-1-3-2-4-1a87 87 0 0 1 0-26v-1a36 36 0 0 1 4-7l8-7a80 80 0 0 1 13-4c5 0 9 2 14 4 0 2 1 3 3 4z" style="opacity:1" transform="translate(-2 -2) scale(.1234)"/>
  <path fill="#480e03" d="M482 191a60 60 0 0 1-5 9l5 1-6 1c0-5 2-9 6-11z" style="opacity:1" transform="translate(-2 -2) scale(.1234)"/>
  <path fill="#1d0d07" d="m484 190 8 1v4a40 40 0 0 0-5 5l-5 1-5-1a60 60 0 0 0 5-9l2-1z" style="opacity:1" transform="translate(-2 -2) scale(.1234)"/>
  <path fill="#370901" d="M484 190c2-2 5-2 9-1l1 7-7 4a40 40 0 0 1 5-5v-4l-8-1z" style="opacity:1" transform="translate(-2 -2) scale(.1234)"/>
  <path fill="#d56839" d="m494 196-3 5c-6 2-11 2-15 1l6-1 5-1 7-4z" style="opacity:1" transform="translate(-2 -2) scale(.1234)"/>
  <path fill="#cc6335" d="M383 173h-29c9-1 19-2 29-1a72 72 0 0 1 1-11h-41a168 168 0 0 0-3 18 732 732 0 0 0-11 52h12v-5l2-2a42 42 0 0 0-1 8l-15 1v-7l5-22v-1a381 381 0 0 0 10-44h44a2025 2025 0 0 1-3 14z" style="opacity:1" transform="translate(-2 -2) scale(.1234)"/>
  <path fill="#48160c" d="m373 202-1 2h-23a200 200 0 0 1-4 15 105 105 0 0 1 3-17h25z" style="opacity:1" transform="translate(-2 -2) scale(.1234)"/>
  <path fill="#1c0d06" d="M542 190a169 169 0 0 0-3 16c-1 1-2 3-1 6-3 5-7 7-12 6-3-4-4-8-3-12a59 59 0 0 1 7-13c0-2 1-3 3-3a41 41 0 0 1 9 0z" style="opacity:1" transform="translate(-2 -2) scale(.1234)"/>
  <path fill="#4b150b" d="M659 191a145 145 0 0 1-1 17l-3 11-1 1a110 110 0 0 1 3-17l1-11 1-1z" style="opacity:1" transform="translate(-2 -2) scale(.1234)"/>
  <path fill="#390e02" d="M558 184h1a61 61 0 0 1-1 11 163 163 0 0 0-5 14 113 113 0 0 0 0 15h-1v-1c0-13 2-25 6-37v-2z" style="opacity:1" transform="translate(-2 -2) scale(.1234)"/>
  <path fill="#c86638" d="m773 181 1 7a72 72 0 0 1-2 16c-2 6-6 11-10 16a81 81 0 0 0 8-16l3-23z" style="opacity:1" transform="translate(-2 -2) scale(.1234)"/>
  <path fill="#797772" d="m336 156 1 1a6295 6295 0 0 0-18 79c-2-3-2-5-1-7a4173 4173 0 0 1 18-73z" style="opacity:.212" transform="translate(-2 -2) scale(.1234)"/>
  <path fill="#ce6635" d="M758 196c-1 7-4 14-9 20a9 9 0 0 1-5 1 32 32 0 0 0 8-7v-1a41 41 0 0 0 6-13z" style="opacity:1" transform="translate(-2 -2) scale(.1234)"/>
  <path fill="#fa6a29" d="M848 210c1 3 2 3 3-1h1c4-7 7-15 9-23a69 69 0 0 0 3-7 61 61 0 0 1 11 0v7a181 181 0 0 1-15 34c-1-1-2 0-3 1a126 126 0 0 0-9 19v1c-1-1-2 0-3 1a41 41 0 0 0-3 8l-1 1h-10a25 25 0 0 1 1-8l4-10 2-4a51 51 0 0 1-1-7 302 302 0 0 1-5-43h12a599 599 0 0 1 1 23c0 3 1 5 3 8z" style="opacity:1" transform="translate(-2 -2) scale(.1234)"/>
  <path fill="#c46234" d="M861 186c-2 8-5 16-9 23a464 464 0 0 1 9-23z" style="opacity:1" transform="translate(-2 -2) scale(.1234)"/>
  <path fill="#ddb742" d="M50 206a25 25 0 0 0-1 8h3v-3h3v-5h4a64 64 0 0 0-5 8c-4 3-6 2-7-3 0-2 1-4 3-5z" style="opacity:1" transform="translate(-2 -2) scale(.1234)"/>
  <path fill="#85807c" d="m51 195 1 1c-9 4-12 11-11 21-3-10 0-18 10-22z" style="opacity:.157" transform="translate(-2 -2) scale(.1234)"/>
  <path fill="#cc6535" d="M562 202a161 161 0 0 0 1 21c-3-6-4-13-3-19l2-2z" style="opacity:1" transform="translate(-2 -2) scale(.1234)"/>
  <path fill="#f6c725" d="M59 205v1h-4v5h-3v3h-3a25 25 0 0 1 1-8 54 54 0 0 1 9-4v3z" style="opacity:1" transform="translate(-2 -2) scale(.1234)"/>
  <path fill="#330700" d="m332 204-5 22a2594 2594 0 0 1 5-22z" style="opacity:1" transform="translate(-2 -2) scale(.1234)"/>
  <path fill="#380c04" d="M398 198a367 367 0 0 1-6 34l-2 1v-1l1-6 7-28z" style="opacity:1" transform="translate(-2 -2) scale(.1234)"/>
  <path fill="#270d03" d="M564 158h1a276 276 0 0 1-5 27v11c1-4 2-7 5-9a4 4 0 0 0-1-2h3c-2-2-2-3 0-4h5v-4h7v1c-11 4-16 12-17 24l-2 2c-1 6 0 13 3 19 0 2 1 5 4 7-4-1-6-3-7-5a40 40 0 0 0-5-14c-1 7-2 14-1 21l-1-8a113 113 0 0 1 0-15 163 163 0 0 1 5-14l1-11a275 275 0 0 1 5-26z" style="opacity:1" transform="translate(-2 -2) scale(.1234)"/>
  <path fill="#d2693d" d="M511 196a52 52 0 0 0-2 14 52 52 0 0 0 2 15l-3-4a100 100 0 0 1 0-20 39 39 0 0 1 3-5z" style="opacity:1" transform="translate(-2 -2) scale(.1234)"/>
  <path fill="#d56839" d="M640 189c1-1 2 0 4 1a30 30 0 0 1 1 7 944 944 0 0 1-6 34h11c1-14 4-27 8-39a61 61 0 0 1-1 11 110 110 0 0 0-3 17v1c-2 3-3 7-3 11a98 98 0 0 1-14 1 704 704 0 0 0 5-30l1-3c1-5 0-9-3-11z" style="opacity:1" transform="translate(-2 -2) scale(.1234)"/>
  <path fill="#fa6a28" d="M605 184c2 9 2 19 1 30v2c-2 0-3 1-4 3a5 5 0 0 1-3 1c-2 1-3 3-3 7a27 27 0 0 1-6 1c1 1 0 2-1 3-6 2-12 2-18 1l-4-2c-3-2-4-5-4-7a161 161 0 0 1-1-21c1-12 6-20 17-24a50 50 0 0 1 15-1 50 50 0 0 1 11 7z" style="opacity:1" transform="translate(-2 -2) scale(.1234)"/>
  <path fill="#1b0f06" d="M593 208c-1 9-6 13-15 12l-1-2a19 19 0 0 0-1-6 225 225 0 0 0 4-17c3-4 6-5 11-4l-1 5c2 3 3 7 3 12z" style="opacity:1" transform="translate(-2 -2) scale(.1234)"/>
  <path fill="#340c02" d="M593 208c0-5-1-9-3-12l1-5c-5-1-8 0-11 4a225 225 0 0 1-4 17 19 19 0 0 1 1 6l-2-2c-2-9 0-17 5-23 4-5 8-6 13-1 2 5 2 10 0 16z" style="opacity:1" transform="translate(-2 -2) scale(.1234)"/>
  <path fill="#d36739" d="M580 193c-5 6-7 14-5 23l2 2 1 2-3-1c-3-7-3-14 0-21 1-3 3-4 5-5z" style="opacity:1" transform="translate(-2 -2) scale(.1234)"/>
  <path fill="#ea6b34" d="M578 220c9 1 14-3 15-12 2-6 2-11 0-16-5-5-9-4-13 1v-4a5 5 0 0 0 3-1l-1-1 2-2a6 6 0 0 0 3 1 29 29 0 0 1 7-2c-2 3-1 6 2 9 3 12-1 21-10 29-4 1-7 1-8-2z" style="opacity:1" transform="translate(-2 -2) scale(.1234)"/>
  <path fill="#2d0c02" d="M502 206c-2 1-2 3-2 6-7 0-13 1-18 4-3-2-5-2-4 2-2-2-3-3-2-5 9 0 18-3 26-7z" style="opacity:1" transform="translate(-2 -2) scale(.1234)"/>
  <path fill="#c86635" d="M822 201c-3 10-3 20 0 31h-2a169 169 0 0 1-1-27c0-2 1-4 3-4z" style="opacity:1" transform="translate(-2 -2) scale(.1234)"/>
  <path fill="#440d04" d="M530 193a59 59 0 0 0-7 13c-1 4 0 8 3 12 5 1 9-1 12-6-1 6-5 9-12 8a33 33 0 0 0-4-4c-1-7 0-14 3-19 1-2 3-4 5-4z" style="opacity:1" transform="translate(-2 -2) scale(.1234)"/>
  <path fill="#2d0c02" d="M730 202v13a4 4 0 0 1 1 1c2-3 2-3 3 1 6 0 10-2 14-7a8 8 0 0 1 4 0 32 32 0 0 1-8 7 34 34 0 0 1-9 2h-8v-5c0-5 1-9 3-12z" style="opacity:1" transform="translate(-2 -2) scale(.1234)"/>
  <path fill="#1c0f06" d="m836 233-4 10c-3 2-4 4-5 7a97 97 0 0 0 11 3l3-2 1-1a63 63 0 0 0 6-9v-1a41 41 0 0 0 5-7 12 12 0 0 0 1 6l-3 4a4 4 0 0 0 1 1 82 82 0 0 1-7 5c4 1 5 3 0 6l-1-1a27 27 0 0 1-3 6l-12-4a7 7 0 0 1-4 1l1-6h-4c-1-4 1-6 4-8-1-1-2-2-3-1a2 2 0 0 0-1-2l-7 1a19 19 0 0 0 1-6l6-3 1-17a43 43 0 0 0 3-10h4a85 85 0 0 0 2 18c3 2 4 5 4 10z" style="opacity:1" transform="translate(-2 -2) scale(.1234)"/>
  <path fill="#67625d" d="m370 211 1-1 3 2a150 150 0 0 0-4 17v9c-2-2-3-3-3-5a556 556 0 0 1 5-21l-2-1z" style="opacity:.504" transform="translate(-2 -2) scale(.1234)"/>
  <path fill="#d26639" d="M632 190v3a605 605 0 0 0-8 37l-1 2a98 98 0 0 1-14 1v-6l6-23a431 431 0 0 1-4 27h11a943 943 0 0 0 7-39c0-2 1-2 3-2z" style="opacity:1" transform="translate(-2 -2) scale(.1234)"/>
  <path fill="#64230b" d="M727 214v5h8l-9 1c-1-3 0-5 1-6z" style="opacity:1" transform="translate(-2 -2) scale(.1234)"/>
  <path fill="#d56838" d="M539 206c2 12-3 17-15 15-2-1-3-3-2-5a33 33 0 0 1 4 4c7 1 11-2 12-8-1-3 0-5 1-6z" style="opacity:1" transform="translate(-2 -2) scale(.1234)"/>
  <path fill="#d16737" d="M713 204h1a607 607 0 0 1-4 28c-2-1-2-2-2-3a278 278 0 0 0 5-25z" style="opacity:1" transform="translate(-2 -2) scale(.1234)"/>
  <path fill="#470f04" d="M345 219c0 4-1 9-3 13a42 42 0 0 1 1-8l2-5z" style="opacity:1" transform="translate(-2 -2) scale(.1234)"/>
  <path fill="#220d06" d="m777 224 2 1c0 3 2 5 6 7l2 1h13a41 41 0 0 1 8-3c0 1 0 3 2 4l8-2h4l-6 3a19 19 0 0 1-1 6c-2-2-5-3-7-3a18 18 0 0 0-2-7 32 32 0 0 1-5 4 80 80 0 0 0-15 3c-2-2-3-1-4 1a52 52 0 0 0-7-5l-1-2a20 20 0 0 0 2-4 29 29 0 0 0-4-6c2-3 2-6-2-7a30 30 0 0 1-3 10l-2-4a54 54 0 0 0-7 4l4-5c4-5 8-10 10-16a51 51 0 0 1 2-4 22 22 0 0 1 0 7c0 6 1 11 3 17z" style="opacity:1" transform="translate(-2 -2) scale(.1234)"/>
  <path fill="#766b6c" d="M72 219a44 44 0 0 1-5 6 2 2 0 0 1-2 1c1-3 4-6 7-7z" style="opacity:.359" transform="translate(-2 -2) scale(.1234)"/>
  <path fill="#ed6c31" d="M387 182a124 124 0 0 0-2 26h-3v14a9 9 0 0 1-2 3 31 31 0 0 0 11 1l-1 6h-13l3-19a255 255 0 0 1 7-31z" style="opacity:1" transform="translate(-2 -2) scale(.1234)"/>
  <path fill="#380d02" d="M461 206c-2 9 1 17 7 24-4-1-6-3-7-6a43 43 0 0 1-2-13c0-2 0-4 2-5z" style="opacity:1" transform="translate(-2 -2) scale(.1234)"/>
  <path fill="#d76a39" d="M464 196a87 87 0 0 0 0 26c1-1 3 0 4 1 0 2 1 5 3 7a96 96 0 0 0 13 3l12-3 1-9a57 57 0 0 1-17 0c-5-2-7-5-6-9 8 0 16-2 24-6a4 4 0 0 0-1-2 18 18 0 0 1 6 0l-1 2c-8 4-17 7-26 7-1 2 0 3 2 5s5 3 9 3a50 50 0 0 0 11-2v3l-1 10c-8 1-16 2-23 1a27 27 0 0 1-6-3c-6-7-9-15-7-24v-4a23 23 0 0 1 3-6z" style="opacity:1" transform="translate(-2 -2) scale(.1234)"/>
  <path fill="#200d05" d="M502 206c1-1 2 0 3 1a295 295 0 0 1 2 16l2 2h-3a13 13 0 0 0 2 6l-2 3c-3 0-5 1-5 4l-14-2c-3-1-6 0-8 2a169 169 0 0 0-11-5v-3a27 27 0 0 0 6 3c7 1 15 0 23-1l2-5-1-5v-3a50 50 0 0 1-11 2c-4 0-7-1-9-3-1-4 1-4 4-2 5-3 11-4 18-4 0-3 0-5 2-6z" style="opacity:1" transform="translate(-2 -2) scale(.1234)"/>
  <path fill="#ce683a" d="M860 220a122 122 0 0 0-7 13 41 41 0 0 1-5 7 126 126 0 0 1 9-19c1-1 2-2 3-1z" style="opacity:1" transform="translate(-2 -2) scale(.1234)"/>
  <path fill="#fa6a29" d="M822 200v1c-2 0-3 2-3 4a169 169 0 0 0 1 27h-2l-10-2-2-1c-7 3-14 4-21 3-4-2-6-4-6-7-5-14-3-26 5-37 11-12 24-15 40-8a5 5 0 0 1 1 3 75 75 0 0 0-3 17z" style="opacity:1" transform="translate(-2 -2) scale(.1234)"/>
  <path fill="#390e02" d="M793 200a25 25 0 0 1-1 8 98 98 0 0 1 1 9l4 3a9 9 0 0 1 5-1c-4 2-7 2-10 0-3-6-3-12-1-18l2-1z" style="opacity:1" transform="translate(-2 -2) scale(.1234)"/>
  <path fill="#d96b3b" d="M810 193v-4c-9-1-15 2-17 11l-2 1c-2 6-2 12 1 18l-3-3a49 49 0 0 1 0-14 59 59 0 0 0 7-13 97 97 0 0 1 16-1l-2 5z" style="opacity:1" transform="translate(-2 -2) scale(.1234)"/>
  <path fill="#c15c2e" d="M809 197c0 7-2 13-4 20 0-7 1-14 4-20z" style="opacity:1" transform="translate(-2 -2) scale(.1234)"/>
  <path fill="#200e04" d="m810 193-1 4c-3 6-4 13-4 20l-3 2a9 9 0 0 0-5 1l-4-3a98 98 0 0 0-1-9 25 25 0 0 0 1-8c2-9 8-12 17-11v4z" style="opacity:1" transform="translate(-2 -2) scale(.1234)"/>
  <path fill="#75381e" d="m498 222 1 5-2 5 1-10z" style="opacity:1" transform="translate(-2 -2) scale(.1234)"/>
  <path fill="#6e6965" d="M65 226a54 54 0 0 0-3 11c-3-5-2-9 3-11z" style="opacity:.38" transform="translate(-2 -2) scale(.1234)"/>
  <path fill="#eec33e" d="m294 213 8 19a6671 6671 0 0 1-231-2l2-2v3h226a2751 2751 0 0 0-5-18z" style="opacity:1" transform="translate(-2 -2) scale(.1234)"/>
  <path fill="#2c0c04" d="m507 186 1 1 1 6h3a6 6 0 0 0-1 3 39 39 0 0 0-3 5 100 100 0 0 0 0 20l3 4v1c1 3 4 6 8 7l13 1c-6 2-12 2-17-1l-2 3a36 36 0 0 1-4-11l-2-2a295 295 0 0 0-2-16c-1-1-2-2-3-1l1-2c4-6 5-12 4-18z" style="opacity:1" transform="translate(-2 -2) scale(.1234)"/>
  <path fill="#da6b3a" d="M552 224h1l1 8h-13l-3-2a44 44 0 0 1-5 3c0-3 2-5 6-4a32 32 0 0 0 13 2v-7z" style="opacity:1" transform="translate(-2 -2) scale(.1234)"/>
  <path fill="#bfa04e" d="M71 230a6671 6671 0 0 0 231 2 13572 13572 0 0 1-233 1c0-2 1-3 2-3z" style="opacity:1" transform="translate(-2 -2) scale(.1234)"/>
  <path fill="#be613b" d="m380 213-3 19h13v1h-14a156 156 0 0 1 4-20z" style="opacity:1" transform="translate(-2 -2) scale(.1234)"/>
  <path fill="#c1633c" d="m808 230 10 2-8 2c-2-1-2-3-2-4z" style="opacity:1" transform="translate(-2 -2) scale(.1234)"/>
  <path fill="#261200" d="M286 198a24 24 0 0 1 5 3l-1 1c2 2 4 5 5 9a10 10 0 0 0 4 1c-2 1-2 3-1 5a174 174 0 0 0 7 14l-2 2a9132 9132 0 0 1-234 0l233-1-8-19a162 162 0 0 0-8-15z" style="opacity:1" transform="translate(-2 -2) scale(.1234)"/>
  <path fill="#cd6334" d="M808 230a41 41 0 0 0-8 3 42 42 0 0 1-13 0l-2-1c7 1 14 0 21-3l2 1z" style="opacity:1" transform="translate(-2 -2) scale(.1234)"/>
  <path fill="#1a0f08" d="M417 194a71 71 0 0 1-3 9c-2 5-2 11-1 18 1 2 2 4 5 6 0 2 1 3 3 5 7 3 14 5 23 3 3 0 5-1 8-3l-1-13-18-1a7 7 0 0 1-2-2 50 50 0 0 0 7-3h2c6-1 12-3 17-7a5 5 0 0 0 1-3l2-2 1 1v4c-2 1-2 3-2 5a43 43 0 0 0 2 13c1 3 3 5 7 6v3a169 169 0 0 1 11 5c2-2 5-3 8-2l14 2c0-3 2-4 5-4l-5 5c-11 4-21 4-31 1a46 46 0 0 1-10-6c-3 4-8 6-13 7-27 5-41-6-43-32a1059 1059 0 0 0-7 28l-3 3a121 121 0 0 1-22 0l-2-2v-9l1 1 2-4 1 1 1 9 15-3 2-1a367 367 0 0 0 6-34v-2l3-5a30 30 0 0 1 11 0c2 0 3 1 5 3z" style="opacity:1" transform="translate(-2 -2) scale(.1234)"/>
  <path fill="#d46736" d="M448 220c0-1 1-2 3-1l1 13a86 86 0 0 1-25 1c-4-1-6-3-7-5a73 73 0 0 0 16 5c4-2 9-3 14-2l-2-11z" style="opacity:1" transform="translate(-2 -2) scale(.1234)"/>
  <path fill="#d86e40" d="M432 220h16c-5 2-10 3-15 2l-1-2z" style="opacity:1" transform="translate(-2 -2) scale(.1234)"/>
  <path fill="#380b01" d="M414 203c-1 8 0 16 4 24-3-2-4-4-5-6-1-7-1-13 1-18z" style="opacity:1" transform="translate(-2 -2) scale(.1234)"/>
  <path fill="#370801" d="M429 213h9a50 50 0 0 1-7 3 7 7 0 0 0 2 2 1497 1497 0 0 0-1 2c-3-2-4-5-3-7z" style="opacity:1" transform="translate(-2 -2) scale(.1234)"/>
  <path fill="#d36738" d="M456 204a15 15 0 0 1-3 3 378 378 0 0 1-13 6h-11l1-2 18-3 4-4a8 8 0 0 1 4 0z" style="opacity:1" transform="translate(-2 -2) scale(.1234)"/>
  <path fill="#3b0b02" d="M457 203h1a5 5 0 0 1-1 3c-5 4-11 6-17 7a378 378 0 0 0 13-6 15 15 0 0 0 3-3l1-1z" style="opacity:1" transform="translate(-2 -2) scale(.1234)"/>
  <path fill="#330b02" d="m756 226-6 6c-13 3-25 3-37 2a44 44 0 0 1-3-2c16 4 31 2 46-6z" style="opacity:1" transform="translate(-2 -2) scale(.1234)"/>
  <path fill="#320d03" d="m418 227 2 1c1 2 3 4 7 5 8 1 16 0 25-1-3 2-5 3-8 3-9 2-16 0-23-3-2-2-3-3-3-5z" style="opacity:1" transform="translate(-2 -2) scale(.1234)"/>
  <path d="M508 236c-1 0-1 0 0 0z" style="opacity:.00799997" transform="translate(-2 -2) scale(.1234)"/>
  <path fill="#181008" d="M815 241c-4 1-7 1-9-1-9 4-18 3-27-2a25 25 0 0 1-4-4l7 5c1-2 2-3 4-1a80 80 0 0 1 15-3 32 32 0 0 0 5-4 18 18 0 0 1 2 7c2 0 5 1 7 3z" style="opacity:1" transform="translate(-2 -2) scale(.1234)"/>
  <path fill="#1a0f07" d="M588 126a247 247 0 0 1-17 24 11 11 0 0 1 2 6 106 106 0 0 0-3 17c0-3 1-3 3-1 10-6 21-6 32-1 2 2 5 4 6 7 2-3 4-5 7-6 12-5 24-6 37-1 10-5 19-4 29 0 7 6 11 13 11 23a430 430 0 0 1-9 43l-3 3h-21a12 12 0 0 1-5-3l-3 3a100 100 0 0 1-20 0 12 12 0 0 1-5-3l-3 3a100 100 0 0 1-20 0 32 32 0 0 0-5-4c-14 9-27 9-40 0l-7 4-11 2-5-2c-11 4-21 3-30-4l-2-2 2-3a13 13 0 0 1-2-6h3a36 36 0 0 0 4 11l2-3c5 3 11 3 17 1l6-3 2 2 5 1 7-2h2c-1-7 0-14 1-21a40 40 0 0 1 5 14c1 2 3 4 7 5 0 2 1 3 4 4a72 72 0 0 0 17 0l5-2 1-1a479 479 0 0 1 9-4 316 316 0 0 0 8-22 139 139 0 0 1-2 22v6a98 98 0 0 0 14-1l1-2 2-3a217 217 0 0 1 6-27l1-1a43 43 0 0 0 2 9c0-4 1-8 3-11h3a38 38 0 0 1-5 14 72 72 0 0 0 0 12h-4v5h3a12 12 0 0 0 1 6 38 38 0 0 0 15 0l1-1 2-12v-1l1-1 3-11 1-17h1c3-1 6 0 9 2a57 57 0 0 1 0 15v4a259 259 0 0 0-5 21 57 57 0 0 0 15-1 15 15 0 0 0 1-7l1-1 5-17 1-12a53 53 0 0 0-2-14 4 4 0 0 1 1-2 10 10 0 0 0-6-1v-3h-19c-5 3-9 3-13 0h-24a24 24 0 0 1-6 3 176 176 0 0 1-2 15c-1 0-2 1-1 3h-3a52 52 0 0 1 1-7h-4c-1-2 0-4 2-5a28 28 0 0 1-5-9h-5l-1-3-6-2-1 1c-6 0-10 2-13 6h-8v4h-5c-2 1-2 2 0 4h-3a4 4 0 0 1 1 2c-3 2-4 5-5 9a90 90 0 0 0 0-11 276 276 0 0 0 5-27h7l-2-4v-4h-16v-6a37 37 0 0 0 12-1l3-5 2-1a21 21 0 0 0 5 1 8 8 0 0 1 0-4h4l-1-1 6-13a33 33 0 0 0 3 6z" style="opacity:.779" transform="translate(-2 -2) scale(.1234)"/>
  <path fill="#3b0b01" d="m567 230 4 2 2 1c6 1 13 0 20-1l-5 2a72 72 0 0 1-17 0c-3-1-4-2-4-4z" style="opacity:1" transform="translate(-2 -2) scale(.1234)"/>
  <path fill="#d86a3b" d="m606 216-12 15-1 1c-7 1-14 2-20 1l-2-1c6 1 12 1 18-1 1-1 2-2 1-3a27 27 0 0 0 6-1c0-4 1-6 3-7a5 5 0 0 0 3-1c1-2 2-3 4-3z" style="opacity:1" transform="translate(-2 -2) scale(.1234)"/>
  <path fill="#d16634" d="M511 226a19 19 0 0 0 6 1c-1 2 1 4 4 5l11 1v1a85 85 0 0 1-13-1c-4-1-7-4-8-7z" style="opacity:1" transform="translate(-2 -2) scale(.1234)"/>
  <path fill="#420c05" d="m552 232-7 2-5-1a9 9 0 0 1-2-2l-6 3v-1h1a44 44 0 0 0 5-3l3 2h11z" style="opacity:1" transform="translate(-2 -2) scale(.1234)"/>
  <path fill="#d8663d" d="M669 212a72 72 0 0 1-2 19 55 55 0 0 0 12-1c-1-2 0-4 1-5a15 15 0 0 1-1 7 57 57 0 0 1-15 1 259 259 0 0 1 5-21z" style="opacity:1" transform="translate(-2 -2) scale(.1234)"/>
  <path fill="#873818" d="M662 190c9-3 12 0 9 10 1-8-2-12-9-10z" style="opacity:1" transform="translate(-2 -2) scale(.1234)"/>
  <path fill="#390801" d="M660 191c0-1 1-2 2-1 7-2 10 2 9 10l-2 8a57 57 0 0 0 0-15c-3-2-6-3-9-2z" style="opacity:1" transform="translate(-2 -2) scale(.1234)"/>
  <path fill="#d76c3c" d="M605 184a50 50 0 0 0-11-7 50 50 0 0 0-15 1v-1h1c8-3 15-1 23 3l2 4z" style="opacity:1" transform="translate(-2 -2) scale(.1234)"/>
  <path fill="#bf6239" d="M848 241a63 63 0 0 1-6 9 41 41 0 0 1 3-8c1-1 2-2 3-1z" style="opacity:1" transform="translate(-2 -2) scale(.1234)"/>
  <path fill="#716965" d="M823 242c1-1 2 0 3 1-3 2-5 4-4 8l-1 4c-2-1-3-2-2-4a172 172 0 0 1 4-9z" style="opacity:.255" transform="translate(-2 -2) scale(.1234)"/>
  <path fill="#171008" d="m871 217-18 32a56 56 0 0 1-9 11c-8 1-15 0-22-3l-1-2 1-4h4l-1 6a7 7 0 0 0 4-1l12 4a27 27 0 0 0 3-6l1 1c5-3 4-5 0-6a82 82 0 0 0 7-5 4 4 0 0 1-1-1l3-4a12 12 0 0 1-1-6 31 31 0 0 1 4-3l2 1a278 278 0 0 0 3-13 7 7 0 0 0 3 2c0-8 2-9 6-3z" style="opacity:1" transform="translate(-2 -2) scale(.1234)"/>
  <path fill="#c26137" d="M832 243a25 25 0 0 0-1 8h10l-3 2a97 97 0 0 1-11-3c1-3 2-5 5-7z" style="opacity:1" transform="translate(-2 -2) scale(.1234)"/>
</svg>
