<?xml version="1.0" encoding="utf-8"?>
<!-- Generator: Adobe Illustrator 19.2.1, SVG Export Plug-In . SVG Version: 6.00 Build 0)  -->
<svg version="1.1" id="logo_x5F_sirius_xA0_Imagen_1_"
	 xmlns="http://www.w3.org/2000/svg" xmlns:xlink="http://www.w3.org/1999/xlink" viewBox="0 0 750 750"
	 style="enable-background:new 0 0 750 750;" xml:space="preserve">
<style type="text/css">
	.st0{fill:#D8DDDF;}
	.st1{fill:#24255E;}
	.st2{fill:#2A2B62;}
</style>
<g>
	<g>
		<path class="st0" d="M375.7,747C170.9,747,3.8,580.7,4.5,374.3C5.2,170.9,170.7,3.5,377.9,4.5c202.9,1,370,166.2,369.1,373.3
			C746,581.1,580.9,746.9,375.7,747z"/>
		<path class="st1" d="M502.3,108.9c-9.2-2.3-18.3-4.6-27.5-6.9c-8.6-2.1-17.3-3.2-26-4.6c-17.2-2.6-34.4-2.2-51.7-2.1
			c-11.7,0.1-23.2,2-34.8,3.3c-8.8,0.9-17.7,1.7-26.4,3.4c-26.3,5.1-51.4,13.1-74.4,27.4c-19,11.9-35.7,26.1-47.8,45.2
			c-8.2,12.9-14.1,26.9-15.4,42.1c-0.9,9.8-1.1,19.8,1.3,29.7c4.3,18.1,12.6,33.9,24.9,47.9c10.9,12.4,23.2,22.9,37.3,31.2
			c17.2,10.1,34.8,19.3,52.8,27.9c31.6,15.2,65.2,24.6,98.9,33.7c21.7,5.9,43.6,11.3,65.8,14.8c22.5,3.6,44.9,7.5,67.7,9.4
			c22.5,1.9,45,3.8,67.6,4.5c17.6,0.5,35.1,1.2,52.7,1.1c1.7,0,3,0,2.5,2.3c-5.1,22.1-9.2,44.6-17.6,65.7
			c-25.9,64.9-69.3,114.7-129.9,149.6c-29.1,16.7-60.4,27.1-93.3,33c-22,4-44.3,5.9-66.6,5.1c-30.1-1.1-59.1-7.6-87.4-17.4
			c-31.4-11-59.6-27.6-85.1-48.9c-0.9-0.8-1.8-1.5-2.8-2.3c1.6-0.5,2.5,0.5,3.6,1.1c13.8,6.7,28,12.6,42.4,17.9
			c21.4,7.9,43.1,14.6,65.3,19.5c7,1.6,14.1,3,21.2,4.2c18.9,3.3,37.9,3.2,56.8,2.7c10.8-0.3,21.5-2,32.2-3.9
			c13.4-2.4,26.4-6,39.1-10.7c18.5-6.8,35.7-16.2,51.1-28.7c11.1-9,20.9-19.2,28.7-31.2c13.1-20.2,19.6-42.2,15.8-66.4
			c-2.3-14.3-8.7-27-16.9-38.8c-12.8-18.2-29.6-32-48-44c-29.1-19-61.1-32-93.6-43.8c-32.6-11.8-66.2-20.1-100.1-26.9
			c-22.5-4.5-45.3-8.1-68.1-10.8c-21-2.5-42.1-4.6-63.2-6c-22.6-1.6-45.2-2.3-67.8-2.2c-3.1,0-3.9-0.6-3.7-3.9
			c1.8-23.1,8.7-44.9,18-65.9c15.4-34.7,36-66.1,61.8-94c16.2-17.5,34.8-32,54.9-44.9c15.8-10.2,32.2-19.2,49.5-26.4
			c12.9-5.4,26-10.1,39.7-13.4c7.5-1.8,14.9-3.8,22.4-5.1c18.7-3.1,37.5-4.1,56.4-3c12.3,0.7,24.5,1.5,36.7,3.3
			c27.6,4.1,54.2,11.6,79.5,23.4c1.2,0.6,2.3,1.4,3.5,2.1C503.6,108.8,503.1,109.2,502.3,108.9z"/>
		<path class="st2" d="M502.3,108.9c0.6-0.3,1.1-0.6,1.7-0.8c0.5,0,1.2,0.2,1,0.6C504.2,109.7,503.2,109.8,502.3,108.9z"/>
	</g>
</g>
</svg>
